<svg width="620" height="620" viewBox="0 0 620 620" fill="none" xmlns="http://www.w3.org/2000/svg">
<path d="M511.996 229.512C511.996 229.512 481.827 172.831 415.276 164.436C348.725 156.042 302.138 196.974 253.121 217.967C227.441 228.954 198.127 224.688 170.872 230.008C83.6628 247.02 50.84 353.623 87.1348 414.247C118.556 466.724 173.86 494.016 258.081 500.315C342.302 506.614 401.388 513.955 476.805 462.52C552.222 411.085 547.2 304.036 511.996 229.512Z" fill="#5C7F67"/>
<path opacity="0.8" d="M511.996 229.512C511.996 229.512 481.827 172.831 415.276 164.436C348.725 156.042 302.138 196.974 253.121 217.967C227.441 228.954 198.127 224.688 170.872 230.008C83.6628 247.02 50.84 353.623 87.1348 414.247C118.556 466.724 173.86 494.016 258.081 500.315C342.302 506.614 401.388 513.955 476.805 462.52C552.222 411.085 547.2 304.036 511.996 229.512Z" fill="white"/>
<path d="M237.299 175.659C234.05 173.885 232.587 175.361 231.409 173.885C230.231 172.41 234.645 168.59 225.816 164.759C225.816 164.759 225.221 156.513 213.156 156.228C201.091 155.942 204.327 164.461 201.091 166.532C197.854 168.603 196.962 165.292 193.725 167.412C190.489 169.533 191.964 173.613 189.311 174.183C186.657 174.753 183.111 171.529 179.887 173.588C176.663 175.646 176.65 177.419 175.175 177.419C173.699 177.419 170.76 176.179 168.975 177.419C167.189 178.659 165.143 180.073 165.143 180.073H239.63C239.63 180.073 240.56 177.419 237.299 175.659Z" fill="#5C7F67"/>
<path opacity="0.5" d="M237.299 175.659C234.05 173.885 232.587 175.361 231.409 173.885C230.231 172.41 234.645 168.59 225.816 164.759C225.816 164.759 225.221 156.513 213.156 156.228C201.091 155.942 204.327 164.461 201.091 166.532C197.854 168.603 196.962 165.292 193.725 167.412C190.489 169.533 191.964 173.613 189.311 174.183C186.657 174.753 183.111 171.529 179.887 173.588C176.663 175.646 176.65 177.419 175.175 177.419C173.699 177.419 170.76 176.179 168.975 177.419C167.189 178.659 165.143 180.073 165.143 180.073H239.63C239.63 180.073 240.56 177.419 237.299 175.659Z" fill="#5C7F67"/>
<g opacity="0.8">
<path d="M237.299 175.659C234.05 173.885 232.587 175.361 231.409 173.885C230.231 172.41 234.645 168.59 225.816 164.759C225.816 164.759 225.221 156.513 213.156 156.228C201.091 155.942 204.327 164.461 201.091 166.532C197.854 168.603 196.962 165.292 193.725 167.412C190.489 169.533 191.964 173.613 189.311 174.183C186.657 174.753 183.111 171.529 179.887 173.588C176.663 175.646 176.65 177.419 175.175 177.419C173.699 177.419 170.76 176.179 168.975 177.419C167.189 178.659 165.143 180.073 165.143 180.073H239.63C239.63 180.073 240.56 177.419 237.299 175.659Z" fill="white"/>
<path opacity="0.5" d="M237.299 175.659C234.05 173.885 232.587 175.361 231.409 173.885C230.231 172.41 234.645 168.59 225.816 164.759C225.816 164.759 225.221 156.513 213.156 156.228C201.091 155.942 204.327 164.461 201.091 166.532C197.854 168.603 196.962 165.292 193.725 167.412C190.489 169.533 191.964 173.613 189.311 174.183C186.657 174.753 183.111 171.529 179.887 173.588C176.663 175.646 176.65 177.419 175.175 177.419C173.699 177.419 170.76 176.179 168.975 177.419C167.189 178.659 165.143 180.073 165.143 180.073H239.63C239.63 180.073 240.56 177.419 237.299 175.659Z" fill="white"/>
</g>
<path d="M476.693 147.027C470.642 143.729 467.902 146.481 465.707 143.729C463.512 140.976 471.746 133.809 455.266 126.703C455.266 126.703 454.162 111.315 431.632 110.769C409.101 110.224 415.152 126.145 409.113 129.989C403.074 133.833 401.413 127.795 395.374 131.639C389.335 135.483 392.076 143.183 387.128 144.274C382.18 145.365 375.596 139.314 369.545 143.183C363.494 147.052 363.506 150.325 360.766 150.325C358.025 150.325 352.52 148.131 349.221 150.325C345.923 152.52 342.079 155.285 342.079 155.285H481.12C481.12 155.285 482.732 150.325 476.693 147.027Z" fill="#5C7F67"/>
<path opacity="0.5" d="M476.693 147.027C470.642 143.729 467.902 146.481 465.707 143.729C463.512 140.976 471.746 133.809 455.266 126.703C455.266 126.703 454.162 111.315 431.632 110.769C409.101 110.224 415.152 126.145 409.113 129.989C403.074 133.833 401.413 127.795 395.374 131.639C389.335 135.483 392.076 143.183 387.128 144.274C382.18 145.365 375.596 139.314 369.545 143.183C363.494 147.052 363.506 150.325 360.766 150.325C358.025 150.325 352.52 148.131 349.221 150.325C345.923 152.52 342.079 155.285 342.079 155.285H481.12C481.12 155.285 482.732 150.325 476.693 147.027Z" fill="#5C7F67"/>
<g opacity="0.8">
<path d="M476.693 147.027C470.642 143.729 467.902 146.481 465.707 143.729C463.512 140.976 471.746 133.809 455.266 126.703C455.266 126.703 454.162 111.315 431.632 110.769C409.101 110.224 415.152 126.145 409.113 129.989C403.074 133.833 401.413 127.795 395.374 131.639C389.335 135.483 392.076 143.183 387.128 144.274C382.18 145.365 375.596 139.314 369.545 143.183C363.494 147.052 363.506 150.325 360.766 150.325C358.025 150.325 352.52 148.131 349.221 150.325C345.923 152.52 342.079 155.285 342.079 155.285H481.12C481.12 155.285 482.732 150.325 476.693 147.027Z" fill="white"/>
<path opacity="0.5" d="M476.693 147.027C470.642 143.729 467.902 146.481 465.707 143.729C463.512 140.976 471.746 133.809 455.266 126.703C455.266 126.703 454.162 111.315 431.632 110.769C409.101 110.224 415.152 126.145 409.113 129.989C403.074 133.833 401.413 127.795 395.374 131.639C389.335 135.483 392.076 143.183 387.128 144.274C382.18 145.365 375.596 139.314 369.545 143.183C363.494 147.052 363.506 150.325 360.766 150.325C358.025 150.325 352.52 148.131 349.221 150.325C345.923 152.52 342.079 155.285 342.079 155.285H481.12C481.12 155.285 482.732 150.325 476.693 147.027Z" fill="white"/>
</g>
<path d="M463.165 273.891C462.669 275.739 464.219 278.281 463.5 280.017C462.78 281.753 459.879 282.497 458.924 284.121C457.969 285.746 458.812 288.61 457.684 290.123C456.556 291.636 453.555 291.549 452.203 292.9C450.852 294.252 450.963 297.216 449.426 298.369C447.888 299.522 445.073 298.691 443.424 299.609C441.775 300.526 441.093 303.44 439.332 304.172C437.571 304.904 435.054 303.354 433.206 303.85C431.359 304.346 429.958 306.937 428.048 307.198C426.138 307.458 424.142 305.288 422.22 305.288C420.298 305.288 418.24 307.433 416.38 307.198C414.52 306.962 413.056 304.333 411.234 303.85C409.411 303.366 406.856 304.904 405.108 304.172C403.36 303.44 402.628 300.551 401.016 299.609C399.404 298.666 396.515 299.497 395.014 298.369C393.514 297.24 393.576 294.24 392.237 292.9C390.898 291.561 387.922 291.66 386.756 290.123C385.59 288.585 386.434 285.77 385.516 284.121C384.598 282.472 381.684 281.79 380.953 280.017C380.221 278.244 381.771 275.739 381.275 273.891C380.779 272.044 378.188 270.655 377.94 268.745C377.692 266.836 379.849 264.839 379.849 262.905C379.849 260.97 377.692 258.937 377.94 257.077C378.188 255.217 380.792 253.754 381.275 251.931C381.759 250.108 380.221 247.541 380.953 245.805C381.684 244.069 384.574 243.325 385.516 241.701C386.458 240.076 385.64 237.2 386.756 235.699C387.872 234.199 390.885 234.273 392.224 232.922C393.564 231.57 393.464 228.606 395.002 227.453C396.54 226.3 399.354 227.131 401.004 226.213C402.653 225.296 403.335 222.382 405.108 221.65C406.881 220.918 409.386 222.468 411.234 221.972C413.081 221.476 414.482 218.872 416.38 218.624C418.277 218.376 420.286 220.534 422.22 220.534C424.154 220.534 426.188 218.389 428.048 218.624C429.908 218.86 431.384 221.489 433.194 221.972C435.004 222.456 437.584 220.918 439.32 221.638C441.056 222.357 441.8 225.258 443.424 226.213C445.048 227.168 447.925 226.325 449.426 227.453C450.926 228.582 450.864 231.582 452.203 232.922C453.542 234.261 456.518 234.162 457.672 235.699C458.825 237.237 457.994 240.052 458.912 241.701C459.829 243.35 462.756 244.032 463.487 245.793C464.219 247.554 462.656 250.083 463.152 251.931C463.648 253.778 466.252 255.167 466.5 257.077C466.748 258.986 464.591 260.983 464.591 262.905C464.591 264.827 466.736 266.885 466.5 268.745C466.265 270.605 463.648 272.068 463.165 273.891ZM217.397 254.051C216.988 252.551 218.252 250.492 217.657 249.091C217.062 247.69 214.718 247.082 213.937 245.756C213.156 244.429 213.838 242.098 212.908 240.882C211.978 239.667 209.548 239.717 208.456 238.626C207.365 237.534 207.427 235.116 206.2 234.174C204.972 233.232 202.666 233.926 201.326 233.145C199.987 232.364 199.429 230.032 197.991 229.425C196.552 228.817 194.519 230.094 193.031 229.685C191.543 229.276 190.402 227.205 188.852 226.97C187.302 226.734 185.678 228.52 184.115 228.52C182.553 228.52 180.879 226.771 179.366 226.97C177.853 227.168 176.675 229.301 175.187 229.685C173.699 230.07 171.628 228.83 170.227 229.425C168.826 230.02 168.231 232.364 166.892 233.145C165.552 233.926 163.246 233.244 162.018 234.186C160.791 235.129 160.853 237.534 159.762 238.626C158.67 239.717 156.265 239.655 155.322 240.882C154.38 242.11 155.062 244.416 154.281 245.756C153.5 247.095 151.168 247.653 150.561 249.091C149.953 250.53 151.23 252.563 150.834 254.051C150.437 255.539 148.354 256.68 148.118 258.23C147.882 259.78 149.668 261.404 149.668 262.967C149.668 264.529 147.92 266.203 148.118 267.716C148.316 269.229 150.437 270.419 150.834 271.895C151.23 273.37 149.978 275.454 150.561 276.855C151.144 278.256 153.5 278.864 154.281 280.19C155.062 281.517 154.368 283.91 155.31 285.064C156.252 286.217 158.67 286.229 159.762 287.32C160.853 288.412 160.791 290.83 162.006 291.76C163.221 292.69 165.552 292.02 166.892 292.801C168.231 293.582 168.789 295.914 170.215 296.521C171.641 297.129 173.687 295.852 175.175 296.261C176.663 296.67 177.816 298.741 179.366 298.976C180.916 299.212 182.54 297.426 184.103 297.426C185.665 297.426 187.327 299.162 188.84 298.976C190.352 298.79 191.543 296.645 193.018 296.248C194.494 295.852 196.577 297.104 197.978 296.521C199.38 295.938 199.975 293.582 201.302 292.801C202.628 292.02 204.96 292.702 206.175 291.76C207.39 290.817 207.34 288.412 208.432 287.32C209.523 286.229 211.941 286.291 212.883 285.064C213.826 283.836 213.144 281.53 213.912 280.19C214.681 278.851 217.037 278.293 217.632 276.855C218.228 275.416 216.963 273.383 217.372 271.895C217.781 270.407 219.852 269.254 220.088 267.716C220.323 266.178 218.538 264.542 218.538 262.967C218.538 261.392 220.286 259.743 220.088 258.23C219.889 256.717 217.794 255.44 217.397 253.989V254.051ZM376.365 230.962C376.848 229.152 379.465 227.726 379.713 225.816C379.961 223.907 377.803 221.91 377.803 219.988C377.803 218.066 379.948 216.008 379.713 214.148C379.477 212.288 376.848 210.825 376.365 209.002C375.881 207.179 377.419 204.612 376.7 202.876C375.98 201.14 373.079 200.396 372.124 198.772C371.169 197.148 372.012 194.271 370.884 192.77C369.756 191.27 366.755 191.344 365.416 189.993C364.076 188.641 364.176 185.678 362.638 184.524C361.1 183.371 358.286 184.202 356.636 183.284C354.987 182.367 354.305 179.453 352.532 178.721C350.759 177.99 348.254 179.54 346.406 179.044C344.559 178.548 343.17 175.956 341.26 175.708C339.351 175.46 337.354 177.618 335.432 177.618C333.51 177.618 331.452 175.46 329.592 175.708C327.732 175.956 326.269 178.56 324.446 179.044C322.623 179.527 320.056 178.002 318.32 178.721C316.584 179.44 315.84 182.342 314.216 183.284C312.592 184.227 309.715 183.408 308.214 184.524C306.714 185.64 306.788 188.654 305.437 190.005C304.085 191.357 301.122 191.245 299.968 192.783C298.815 194.32 299.646 197.135 298.728 198.784C297.811 200.434 294.897 201.116 294.165 202.876C293.434 204.637 294.984 207.154 294.488 209.002C293.992 210.85 291.4 212.251 291.152 214.148C290.904 216.045 293.062 218.054 293.062 219.988C293.062 221.923 290.904 223.956 291.152 225.816C291.4 227.676 294.004 229.152 294.488 230.962C294.64 231.661 294.64 232.384 294.488 233.083C293 232.835 291.177 233.083 289.986 232.376C288.35 231.434 287.655 228.544 285.882 227.813C284.109 227.081 281.604 228.644 279.756 228.148C277.909 227.652 276.52 225.048 274.61 224.8C272.701 224.552 270.704 226.709 268.782 226.709C266.86 226.709 264.802 224.552 262.942 224.8C261.082 225.048 259.619 227.652 257.796 228.148C255.973 228.644 253.406 227.094 251.67 227.813C249.934 228.532 249.19 231.434 247.566 232.388C245.942 233.343 243.065 232.5 241.564 233.628C240.064 234.757 240.126 237.77 238.787 239.109C237.448 240.448 234.472 240.349 233.318 241.887C232.165 243.424 232.996 246.239 232.078 247.888C231.161 249.538 228.247 250.22 227.515 251.98C226.784 253.741 228.334 256.258 227.838 258.118C227.342 259.978 224.75 261.355 224.502 263.264C224.254 265.174 226.412 267.17 226.412 269.092C226.412 271.014 224.254 273.073 224.502 274.933C224.75 276.793 227.354 278.256 227.838 280.079C228.321 281.902 226.784 284.456 227.515 286.204C228.247 287.953 231.136 288.684 232.078 290.309C233.021 291.933 232.202 294.798 233.318 296.31C234.434 297.823 237.448 297.736 238.787 299.088C240.126 300.44 240.027 303.403 241.564 304.556C243.102 305.71 245.929 304.879 247.578 305.796C249.228 306.714 249.91 309.628 251.67 310.36C253.431 311.091 255.948 309.541 257.796 310.025C259.644 310.508 261.045 313.125 262.942 313.373C264.839 313.621 266.848 311.463 268.782 311.463C270.717 311.463 272.75 313.621 274.61 313.373C276.47 313.125 277.946 310.521 279.756 310.025C281.567 309.529 284.146 311.079 285.894 310.36C287.643 309.64 288.374 306.739 289.986 305.784C291.598 304.829 294.488 305.672 295.988 304.544C297.488 303.416 297.426 300.415 298.766 299.063C300.105 297.712 303.081 297.823 304.246 296.286C305.412 294.748 304.556 291.933 305.486 290.284C306.416 288.635 309.33 287.953 310.062 286.192C310.794 284.431 309.231 281.914 309.727 280.066C310.223 278.219 312.827 276.818 313.075 274.92C313.323 273.023 311.166 271.002 311.166 269.08C311.166 267.158 313.311 265.112 313.075 263.24C312.84 261.367 310.211 259.916 309.727 258.094C309.573 257.399 309.573 256.68 309.727 255.986C311.215 256.234 313.026 255.986 314.228 256.68C315.865 257.635 316.56 260.524 318.32 261.256C320.081 261.987 322.598 260.425 324.446 260.921C326.294 261.417 327.695 264.021 329.592 264.269C331.489 264.517 333.498 262.359 335.432 262.359C337.367 262.359 339.4 264.504 341.26 264.269C343.12 264.033 344.596 261.404 346.419 260.921C348.242 260.437 350.796 261.975 352.544 261.256C354.293 260.536 355.024 257.635 356.636 256.68C358.248 255.725 361.138 256.568 362.638 255.44C364.138 254.312 364.076 251.311 365.416 249.972C366.755 248.632 369.731 248.732 370.896 247.194C372.062 245.656 371.206 242.842 372.136 241.192C373.066 239.543 375.98 238.861 376.712 237.088C377.444 235.315 375.869 232.748 376.365 230.9V230.962Z" fill="#5C7F67"/>
<path opacity="0.5" d="M463.165 273.891C462.669 275.739 464.219 278.281 463.5 280.017C462.78 281.753 459.879 282.497 458.924 284.121C457.969 285.746 458.812 288.61 457.684 290.123C456.556 291.636 453.555 291.549 452.203 292.9C450.852 294.252 450.963 297.216 449.426 298.369C447.888 299.522 445.073 298.691 443.424 299.609C441.775 300.526 441.093 303.44 439.332 304.172C437.571 304.904 435.054 303.354 433.206 303.85C431.359 304.346 429.958 306.937 428.048 307.198C426.138 307.458 424.142 305.288 422.22 305.288C420.298 305.288 418.24 307.433 416.38 307.198C414.52 306.962 413.056 304.333 411.234 303.85C409.411 303.366 406.856 304.904 405.108 304.172C403.36 303.44 402.628 300.551 401.016 299.609C399.404 298.666 396.515 299.497 395.014 298.369C393.514 297.24 393.576 294.24 392.237 292.9C390.898 291.561 387.922 291.66 386.756 290.123C385.59 288.585 386.434 285.77 385.516 284.121C384.598 282.472 381.684 281.79 380.953 280.017C380.221 278.244 381.771 275.739 381.275 273.891C380.779 272.044 378.188 270.655 377.94 268.745C377.692 266.836 379.849 264.839 379.849 262.905C379.849 260.97 377.692 258.937 377.94 257.077C378.188 255.217 380.792 253.754 381.275 251.931C381.759 250.108 380.221 247.541 380.953 245.805C381.684 244.069 384.574 243.325 385.516 241.701C386.458 240.076 385.64 237.2 386.756 235.699C387.872 234.199 390.885 234.273 392.224 232.922C393.564 231.57 393.464 228.606 395.002 227.453C396.54 226.3 399.354 227.131 401.004 226.213C402.653 225.296 403.335 222.382 405.108 221.65C406.881 220.918 409.386 222.468 411.234 221.972C413.081 221.476 414.482 218.872 416.38 218.624C418.277 218.376 420.286 220.534 422.22 220.534C424.154 220.534 426.188 218.389 428.048 218.624C429.908 218.86 431.384 221.489 433.194 221.972C435.004 222.456 437.584 220.918 439.32 221.638C441.056 222.357 441.8 225.258 443.424 226.213C445.048 227.168 447.925 226.325 449.426 227.453C450.926 228.582 450.864 231.582 452.203 232.922C453.542 234.261 456.518 234.162 457.672 235.699C458.825 237.237 457.994 240.052 458.912 241.701C459.829 243.35 462.756 244.032 463.487 245.793C464.219 247.554 462.656 250.083 463.152 251.931C463.648 253.778 466.252 255.167 466.5 257.077C466.748 258.986 464.591 260.983 464.591 262.905C464.591 264.827 466.736 266.885 466.5 268.745C466.265 270.605 463.648 272.068 463.165 273.891ZM217.397 254.051C216.988 252.551 218.252 250.492 217.657 249.091C217.062 247.69 214.718 247.082 213.937 245.756C213.156 244.429 213.838 242.098 212.908 240.882C211.978 239.667 209.548 239.717 208.456 238.626C207.365 237.534 207.427 235.116 206.2 234.174C204.972 233.232 202.666 233.926 201.326 233.145C199.987 232.364 199.429 230.032 197.991 229.425C196.552 228.817 194.519 230.094 193.031 229.685C191.543 229.276 190.402 227.205 188.852 226.97C187.302 226.734 185.678 228.52 184.115 228.52C182.553 228.52 180.879 226.771 179.366 226.97C177.853 227.168 176.675 229.301 175.187 229.685C173.699 230.07 171.628 228.83 170.227 229.425C168.826 230.02 168.231 232.364 166.892 233.145C165.552 233.926 163.246 233.244 162.018 234.186C160.791 235.129 160.853 237.534 159.762 238.626C158.67 239.717 156.265 239.655 155.322 240.882C154.38 242.11 155.062 244.416 154.281 245.756C153.5 247.095 151.168 247.653 150.561 249.091C149.953 250.53 151.23 252.563 150.834 254.051C150.437 255.539 148.354 256.68 148.118 258.23C147.882 259.78 149.668 261.404 149.668 262.967C149.668 264.529 147.92 266.203 148.118 267.716C148.316 269.229 150.437 270.419 150.834 271.895C151.23 273.37 149.978 275.454 150.561 276.855C151.144 278.256 153.5 278.864 154.281 280.19C155.062 281.517 154.368 283.91 155.31 285.064C156.252 286.217 158.67 286.229 159.762 287.32C160.853 288.412 160.791 290.83 162.006 291.76C163.221 292.69 165.552 292.02 166.892 292.801C168.231 293.582 168.789 295.914 170.215 296.521C171.641 297.129 173.687 295.852 175.175 296.261C176.663 296.67 177.816 298.741 179.366 298.976C180.916 299.212 182.54 297.426 184.103 297.426C185.665 297.426 187.327 299.162 188.84 298.976C190.352 298.79 191.543 296.645 193.018 296.248C194.494 295.852 196.577 297.104 197.978 296.521C199.38 295.938 199.975 293.582 201.302 292.801C202.628 292.02 204.96 292.702 206.175 291.76C207.39 290.817 207.34 288.412 208.432 287.32C209.523 286.229 211.941 286.291 212.883 285.064C213.826 283.836 213.144 281.53 213.912 280.19C214.681 278.851 217.037 278.293 217.632 276.855C218.228 275.416 216.963 273.383 217.372 271.895C217.781 270.407 219.852 269.254 220.088 267.716C220.323 266.178 218.538 264.542 218.538 262.967C218.538 261.392 220.286 259.743 220.088 258.23C219.889 256.717 217.794 255.44 217.397 253.989V254.051ZM376.365 230.962C376.848 229.152 379.465 227.726 379.713 225.816C379.961 223.907 377.803 221.91 377.803 219.988C377.803 218.066 379.948 216.008 379.713 214.148C379.477 212.288 376.848 210.825 376.365 209.002C375.881 207.179 377.419 204.612 376.7 202.876C375.98 201.14 373.079 200.396 372.124 198.772C371.169 197.148 372.012 194.271 370.884 192.77C369.756 191.27 366.755 191.344 365.416 189.993C364.076 188.641 364.176 185.678 362.638 184.524C361.1 183.371 358.286 184.202 356.636 183.284C354.987 182.367 354.305 179.453 352.532 178.721C350.759 177.99 348.254 179.54 346.406 179.044C344.559 178.548 343.17 175.956 341.26 175.708C339.351 175.46 337.354 177.618 335.432 177.618C333.51 177.618 331.452 175.46 329.592 175.708C327.732 175.956 326.269 178.56 324.446 179.044C322.623 179.527 320.056 178.002 318.32 178.721C316.584 179.44 315.84 182.342 314.216 183.284C312.592 184.227 309.715 183.408 308.214 184.524C306.714 185.64 306.788 188.654 305.437 190.005C304.085 191.357 301.122 191.245 299.968 192.783C298.815 194.32 299.646 197.135 298.728 198.784C297.811 200.434 294.897 201.116 294.165 202.876C293.434 204.637 294.984 207.154 294.488 209.002C293.992 210.85 291.4 212.251 291.152 214.148C290.904 216.045 293.062 218.054 293.062 219.988C293.062 221.923 290.904 223.956 291.152 225.816C291.4 227.676 294.004 229.152 294.488 230.962C294.64 231.661 294.64 232.384 294.488 233.083C293 232.835 291.177 233.083 289.986 232.376C288.35 231.434 287.655 228.544 285.882 227.813C284.109 227.081 281.604 228.644 279.756 228.148C277.909 227.652 276.52 225.048 274.61 224.8C272.701 224.552 270.704 226.709 268.782 226.709C266.86 226.709 264.802 224.552 262.942 224.8C261.082 225.048 259.619 227.652 257.796 228.148C255.973 228.644 253.406 227.094 251.67 227.813C249.934 228.532 249.19 231.434 247.566 232.388C245.942 233.343 243.065 232.5 241.564 233.628C240.064 234.757 240.126 237.77 238.787 239.109C237.448 240.448 234.472 240.349 233.318 241.887C232.165 243.424 232.996 246.239 232.078 247.888C231.161 249.538 228.247 250.22 227.515 251.98C226.784 253.741 228.334 256.258 227.838 258.118C227.342 259.978 224.75 261.355 224.502 263.264C224.254 265.174 226.412 267.17 226.412 269.092C226.412 271.014 224.254 273.073 224.502 274.933C224.75 276.793 227.354 278.256 227.838 280.079C228.321 281.902 226.784 284.456 227.515 286.204C228.247 287.953 231.136 288.684 232.078 290.309C233.021 291.933 232.202 294.798 233.318 296.31C234.434 297.823 237.448 297.736 238.787 299.088C240.126 300.44 240.027 303.403 241.564 304.556C243.102 305.71 245.929 304.879 247.578 305.796C249.228 306.714 249.91 309.628 251.67 310.36C253.431 311.091 255.948 309.541 257.796 310.025C259.644 310.508 261.045 313.125 262.942 313.373C264.839 313.621 266.848 311.463 268.782 311.463C270.717 311.463 272.75 313.621 274.61 313.373C276.47 313.125 277.946 310.521 279.756 310.025C281.567 309.529 284.146 311.079 285.894 310.36C287.643 309.64 288.374 306.739 289.986 305.784C291.598 304.829 294.488 305.672 295.988 304.544C297.488 303.416 297.426 300.415 298.766 299.063C300.105 297.712 303.081 297.823 304.246 296.286C305.412 294.748 304.556 291.933 305.486 290.284C306.416 288.635 309.33 287.953 310.062 286.192C310.794 284.431 309.231 281.914 309.727 280.066C310.223 278.219 312.827 276.818 313.075 274.92C313.323 273.023 311.166 271.002 311.166 269.08C311.166 267.158 313.311 265.112 313.075 263.24C312.84 261.367 310.211 259.916 309.727 258.094C309.573 257.399 309.573 256.68 309.727 255.986C311.215 256.234 313.026 255.986 314.228 256.68C315.865 257.635 316.56 260.524 318.32 261.256C320.081 261.987 322.598 260.425 324.446 260.921C326.294 261.417 327.695 264.021 329.592 264.269C331.489 264.517 333.498 262.359 335.432 262.359C337.367 262.359 339.4 264.504 341.26 264.269C343.12 264.033 344.596 261.404 346.419 260.921C348.242 260.437 350.796 261.975 352.544 261.256C354.293 260.536 355.024 257.635 356.636 256.68C358.248 255.725 361.138 256.568 362.638 255.44C364.138 254.312 364.076 251.311 365.416 249.972C366.755 248.632 369.731 248.732 370.896 247.194C372.062 245.656 371.206 242.842 372.136 241.192C373.066 239.543 375.98 238.861 376.712 237.088C377.444 235.315 375.869 232.748 376.365 230.9V230.962Z" fill="white"/>
<path d="M196.007 257.622L185.802 245.222C185.577 244.945 185.294 244.722 184.972 244.568C184.65 244.415 184.298 244.335 183.942 244.335C183.585 244.335 183.233 244.415 182.911 244.568C182.589 244.722 182.306 244.945 182.082 245.222L172.459 257.523V448.037H196.019L196.007 257.622Z" fill="white"/>
<path d="M172.36 257.622L162.155 245.222C161.929 244.947 161.645 244.726 161.324 244.573C161.002 244.421 160.651 244.342 160.295 244.342C159.939 244.342 159.588 244.421 159.266 244.573C158.944 244.726 158.66 244.947 158.435 245.222L148.8 257.622V448.037H172.36V257.622Z" fill="white"/>
<path d="M148.726 257.622L138.52 245.222C138.296 244.945 138.013 244.722 137.691 244.568C137.369 244.415 137.017 244.335 136.66 244.335C136.304 244.335 135.952 244.415 135.63 244.568C135.308 244.722 135.025 244.945 134.8 245.222L125.178 257.523V448.037H148.738L148.726 257.622Z" fill="white"/>
<path d="M125.091 257.622L114.886 245.222C114.66 244.947 114.377 244.726 114.055 244.573C113.733 244.421 113.382 244.342 113.026 244.342C112.67 244.342 112.319 244.421 111.997 244.573C111.676 244.726 111.392 244.947 111.166 245.222L101.544 257.523V448.037H125.104L125.091 257.622Z" fill="white"/>
<path d="M219.567 257.622L209.374 245.222C209.148 244.947 208.865 244.726 208.543 244.573C208.221 244.421 207.87 244.342 207.514 244.342C207.158 244.342 206.807 244.421 206.485 244.573C206.164 244.726 205.88 244.947 205.654 245.222L196.032 257.523V448.037H219.592L219.567 257.622Z" fill="white"/>
<path d="M243.139 257.622L232.934 245.222C232.708 244.947 232.424 244.726 232.103 244.573C231.781 244.421 231.43 244.342 231.074 244.342C230.718 244.342 230.367 244.421 230.045 244.573C229.723 244.726 229.44 244.947 229.214 245.222L219.592 257.523V448.037H243.152L243.139 257.622Z" fill="white"/>
<path d="M266.699 257.622L256.494 245.222C256.27 244.945 255.986 244.722 255.664 244.568C255.343 244.415 254.991 244.335 254.634 244.335C254.277 244.335 253.925 244.415 253.604 244.568C253.282 244.722 252.998 244.945 252.774 245.222L243.152 257.523V448.037H266.712L266.699 257.622Z" fill="white"/>
<path d="M290.259 257.622L280.066 245.222C279.841 244.947 279.557 244.726 279.235 244.573C278.914 244.421 278.562 244.342 278.206 244.342C277.851 244.342 277.499 244.421 277.178 244.573C276.856 244.726 276.572 244.947 276.346 245.222L266.724 257.523V448.037H290.284L290.259 257.622Z" fill="white"/>
<path d="M313.819 257.622L303.626 245.222C303.401 244.947 303.117 244.726 302.795 244.573C302.474 244.421 302.122 244.342 301.766 244.342C301.411 244.342 301.059 244.421 300.738 244.573C300.416 244.726 300.132 244.947 299.906 245.222L290.284 257.523V448.037H313.844L313.819 257.622Z" fill="white"/>
<path d="M337.392 257.622L327.186 245.222C326.961 244.947 326.677 244.726 326.355 244.573C326.034 244.421 325.682 244.342 325.326 244.342C324.971 244.342 324.619 244.421 324.298 244.573C323.976 244.726 323.692 244.947 323.466 245.222L313.844 257.523V448.037H337.404L337.392 257.622Z" fill="white"/>
<path d="M360.952 257.622L350.746 245.222C350.522 244.945 350.239 244.722 349.917 244.568C349.595 244.415 349.243 244.335 348.886 244.335C348.53 244.335 348.178 244.415 347.856 244.568C347.534 244.722 347.251 244.945 347.026 245.222L337.404 257.523V448.037H360.964L360.952 257.622Z" fill="white"/>
<path d="M384.512 257.622L374.319 245.222C374.093 244.947 373.809 244.726 373.488 244.573C373.166 244.421 372.815 244.342 372.459 244.342C372.103 244.342 371.752 244.421 371.43 244.573C371.108 244.726 370.824 244.947 370.599 245.222L360.976 257.523V448.037H384.536L384.512 257.622Z" fill="white"/>
<path d="M408.072 257.622L397.879 245.222C397.653 244.947 397.369 244.726 397.048 244.573C396.726 244.421 396.375 244.342 396.019 244.342C395.663 244.342 395.312 244.421 394.99 244.573C394.668 244.726 394.384 244.947 394.159 245.222L384.536 257.523V448.037H408.096L408.072 257.622Z" fill="white"/>
<path d="M431.644 257.622L421.439 245.222C421.214 244.945 420.931 244.722 420.609 244.568C420.287 244.415 419.935 244.335 419.579 244.335C419.222 244.335 418.87 244.415 418.548 244.568C418.227 244.722 417.943 244.945 417.719 245.222L408.084 257.523V448.037H431.644V257.622Z" fill="white"/>
<path d="M455.204 257.622L444.999 245.222C444.774 244.945 444.491 244.722 444.169 244.568C443.847 244.415 443.495 244.335 443.139 244.335C442.782 244.335 442.43 244.415 442.108 244.568C441.787 244.722 441.503 244.945 441.279 245.222L431.656 257.523V448.037H455.216L455.204 257.622Z" fill="white"/>
<path d="M478.764 257.622L468.571 245.222C468.346 244.947 468.062 244.726 467.74 244.573C467.418 244.421 467.067 244.342 466.711 244.342C466.355 244.342 466.004 244.421 465.682 244.573C465.361 244.726 465.077 244.947 464.851 245.222L455.229 257.523V448.037H478.789L478.764 257.622Z" fill="white"/>
<path d="M502.324 257.622L492.131 245.222C491.906 244.947 491.622 244.726 491.3 244.573C490.978 244.421 490.627 244.342 490.271 244.342C489.915 244.342 489.564 244.421 489.242 244.573C488.921 244.726 488.637 244.947 488.411 245.222L478.789 257.523V448.037H502.349L502.324 257.622Z" fill="white"/>
<path d="M525.896 257.622L515.691 245.222C515.467 244.945 515.183 244.722 514.862 244.568C514.54 244.415 514.188 244.335 513.831 244.335C513.475 244.335 513.123 244.415 512.801 244.568C512.479 244.722 512.196 244.945 511.971 245.222L502.336 257.523V448.037H525.896V257.622Z" fill="white"/>
<g opacity="0.3">
<path d="M196.007 257.622L185.802 245.222C185.577 244.945 185.294 244.722 184.972 244.568C184.65 244.415 184.298 244.335 183.942 244.335C183.585 244.335 183.233 244.415 182.911 244.568C182.589 244.722 182.306 244.945 182.082 245.222L172.459 257.523V448.037H196.019L196.007 257.622Z" stroke="black" stroke-miterlimit="10"/>
<path d="M172.36 257.622L162.155 245.222C161.929 244.947 161.645 244.726 161.324 244.573C161.002 244.421 160.651 244.342 160.295 244.342C159.939 244.342 159.588 244.421 159.266 244.573C158.944 244.726 158.66 244.947 158.435 245.222L148.8 257.622V448.037H172.36V257.622Z" stroke="black" stroke-miterlimit="10"/>
<path d="M148.726 257.622L138.52 245.222C138.296 244.945 138.013 244.722 137.691 244.568C137.369 244.415 137.017 244.335 136.66 244.335C136.304 244.335 135.952 244.415 135.63 244.568C135.308 244.722 135.025 244.945 134.8 245.222L125.178 257.523V448.037H148.738L148.726 257.622Z" stroke="black" stroke-miterlimit="10"/>
<path d="M125.091 257.622L114.886 245.222C114.66 244.947 114.377 244.726 114.055 244.573C113.733 244.421 113.382 244.342 113.026 244.342C112.67 244.342 112.319 244.421 111.997 244.573C111.676 244.726 111.392 244.947 111.166 245.222L101.544 257.523V448.037H125.104L125.091 257.622Z" stroke="black" stroke-miterlimit="10"/>
<path d="M219.567 257.622L209.374 245.222C209.148 244.947 208.865 244.726 208.543 244.573C208.221 244.421 207.87 244.342 207.514 244.342C207.158 244.342 206.807 244.421 206.485 244.573C206.164 244.726 205.88 244.947 205.654 245.222L196.032 257.523V448.037H219.592L219.567 257.622Z" stroke="black" stroke-miterlimit="10"/>
<path d="M243.139 257.622L232.934 245.222C232.708 244.947 232.425 244.726 232.103 244.573C231.781 244.421 231.43 244.342 231.074 244.342C230.718 244.342 230.367 244.421 230.045 244.573C229.724 244.726 229.44 244.947 229.214 245.222L219.592 257.523V448.037H243.152L243.139 257.622Z" stroke="black" stroke-miterlimit="10"/>
<path d="M266.699 257.622L256.494 245.222C256.27 244.945 255.986 244.722 255.664 244.568C255.343 244.415 254.991 244.335 254.634 244.335C254.277 244.335 253.925 244.415 253.604 244.568C253.282 244.722 252.998 244.945 252.774 245.222L243.152 257.523V448.037H266.712L266.699 257.622Z" stroke="black" stroke-miterlimit="10"/>
<path d="M290.259 257.622L280.066 245.222C279.841 244.947 279.557 244.726 279.235 244.573C278.914 244.421 278.562 244.342 278.206 244.342C277.851 244.342 277.499 244.421 277.178 244.573C276.856 244.726 276.572 244.947 276.346 245.222L266.724 257.523V448.037H290.284L290.259 257.622Z" stroke="black" stroke-miterlimit="10"/>
<path d="M313.819 257.622L303.626 245.222C303.401 244.947 303.117 244.726 302.795 244.573C302.474 244.421 302.122 244.342 301.766 244.342C301.411 244.342 301.059 244.421 300.738 244.573C300.416 244.726 300.132 244.947 299.906 245.222L290.284 257.523V448.037H313.844L313.819 257.622Z" stroke="black" stroke-miterlimit="10"/>
<path d="M337.392 257.622L327.186 245.222C326.961 244.947 326.677 244.726 326.355 244.573C326.034 244.421 325.682 244.342 325.326 244.342C324.971 244.342 324.619 244.421 324.298 244.573C323.976 244.726 323.692 244.947 323.466 245.222L313.844 257.523V448.037H337.404L337.392 257.622Z" stroke="black" stroke-miterlimit="10"/>
<path d="M360.952 257.622L350.746 245.222C350.522 244.945 350.239 244.722 349.917 244.568C349.595 244.415 349.243 244.335 348.886 244.335C348.53 244.335 348.178 244.415 347.856 244.568C347.534 244.722 347.251 244.945 347.026 245.222L337.404 257.523V448.037H360.964L360.952 257.622Z" stroke="black" stroke-miterlimit="10"/>
<path d="M384.512 257.622L374.319 245.222C374.093 244.947 373.809 244.726 373.488 244.573C373.166 244.421 372.815 244.342 372.459 244.342C372.103 244.342 371.752 244.421 371.43 244.573C371.108 244.726 370.825 244.947 370.599 245.222L360.976 257.523V448.037H384.536L384.512 257.622Z" stroke="black" stroke-miterlimit="10"/>
<path d="M408.072 257.622L397.879 245.222C397.653 244.947 397.369 244.726 397.048 244.573C396.726 244.421 396.375 244.342 396.019 244.342C395.663 244.342 395.312 244.421 394.99 244.573C394.668 244.726 394.384 244.947 394.159 245.222L384.536 257.523V448.037H408.096L408.072 257.622Z" stroke="black" stroke-miterlimit="10"/>
<path d="M431.644 257.622L421.439 245.222C421.214 244.945 420.931 244.722 420.609 244.568C420.287 244.415 419.935 244.335 419.579 244.335C419.222 244.335 418.87 244.415 418.548 244.568C418.227 244.722 417.943 244.945 417.719 245.222L408.084 257.523V448.037H431.644V257.622Z" stroke="black" stroke-miterlimit="10"/>
<path d="M455.204 257.622L444.999 245.222C444.774 244.945 444.491 244.722 444.169 244.568C443.847 244.415 443.495 244.335 443.139 244.335C442.782 244.335 442.43 244.415 442.108 244.568C441.787 244.722 441.503 244.945 441.279 245.222L431.656 257.523V448.037H455.216L455.204 257.622Z" stroke="black" stroke-miterlimit="10"/>
<path d="M478.764 257.622L468.571 245.222C468.346 244.947 468.062 244.726 467.74 244.573C467.418 244.421 467.067 244.342 466.711 244.342C466.355 244.342 466.004 244.421 465.682 244.573C465.361 244.726 465.077 244.947 464.851 245.222L455.229 257.523V448.037H478.789L478.764 257.622Z" stroke="black" stroke-miterlimit="10"/>
<path d="M502.324 257.622L492.131 245.222C491.906 244.947 491.622 244.726 491.3 244.573C490.978 244.421 490.627 244.342 490.271 244.342C489.915 244.342 489.564 244.421 489.242 244.573C488.921 244.726 488.637 244.947 488.411 245.222L478.789 257.523V448.037H502.349L502.324 257.622Z" stroke="black" stroke-miterlimit="10"/>
<path d="M525.896 257.622L515.691 245.222C515.467 244.945 515.183 244.722 514.862 244.568C514.54 244.415 514.188 244.335 513.831 244.335C513.475 244.335 513.123 244.415 512.801 244.568C512.479 244.722 512.196 244.945 511.971 245.222L502.336 257.523V448.037H525.896V257.622Z" stroke="black" stroke-miterlimit="10"/>
</g>
<path d="M524.16 453.121L552.209 453.704L542.438 450.79L540.504 450.343L537.342 449.624L539.462 442.048L536.064 445.544V439.134L530.956 441.44L527.136 434.446L525.438 439.109L522.462 429.784L520.8 439.134L516.125 433.888V443.213L509.739 438.551L509.318 443.213L505.064 435.054L503.824 442.63L500.005 437.385L500.427 443.796L498.294 442.42L499.447 439.716L496.67 441.44L493.979 439.716L495.132 442.42L492.999 443.796L493.421 437.385L489.589 442.68L488.349 435.104L484.108 443.263L483.674 438.6L477.301 443.263V433.938L472.626 439.183L470.927 429.858L467.951 439.183L466.24 434.471L462.384 441.44L457.287 439.109V445.52L453.84 442.048L455.96 449.624L452.786 450.343L450.864 450.79L448.905 451.372H444.788L447.342 446.127L441.812 446.71L444.788 439.716L438.414 443.796L438.836 437.385L435.017 442.68L433.777 435.104L429.524 443.263L429.102 438.6L422.728 443.263V433.938L418.054 439.183L416.342 429.858L413.366 439.183L411.68 434.471L407.811 441.44L402.702 439.109V445.52L399.28 442.048L401.413 449.624L398.238 450.343L396.304 450.79H396.155L398.908 446.09L392.274 446.673L395.845 439.679L388.182 443.759L388.69 437.348L384.102 442.593L382.565 435.017L377.456 443.176L376.948 438.514L369.284 443.176V433.851L363.667 439.096L361.621 429.772L358.05 439.096L356.004 434.434L351.428 441.44L349.023 440.522L349.234 437.36L347.386 439.84L345.303 439.047V441.886L344.137 434.967L339.884 443.126L339.462 438.464L333.076 443.126V433.802L328.402 439.047L326.703 429.722L323.727 439.047L322.028 434.384L318.209 441.44L313.1 439.109V445.52L309.702 442.023L310.942 446.313L307.446 446.685L310.422 439.692L304.048 443.771L304.47 437.36L300.601 442.68L299.361 435.104L295.12 443.213L294.698 438.551L288.312 443.213V433.888L283.638 439.134L281.939 429.809L278.963 439.134L277.264 434.471L273.408 441.44L268.299 439.109V445.52L264.901 442.023L266.141 446.313L262.644 446.685L265.62 439.692L259.16 443.796L259.582 437.385L255.8 442.68L254.56 435.104L250.319 443.263L249.885 438.6L243.511 443.263V433.938L238.836 439.183L237.138 429.858L234.162 439.183L232.463 434.521L228.594 441.44L223.498 439.109V445.52L220.1 442.023L221.34 446.313L217.843 446.685L220.819 439.692L214.433 443.771L214.867 437.36L210.998 442.68L209.758 435.104L205.518 443.263L205.084 438.6L198.71 443.263V433.938L194.035 439.183L192.336 429.858L189.36 439.183L187.662 434.521L183.793 441.44L178.696 439.109V445.52L175.299 442.023L176.539 446.313L173.042 446.685L176.018 439.692L169.632 443.771L170.066 437.36L166.16 442.68L164.92 435.104L160.667 443.263L160.245 438.6L153.872 443.263V433.938L149.197 439.183L147.56 429.809L144.584 439.134L142.885 434.471L138.992 441.44L135.433 439.803V439.692L135.296 439.766L133.846 439.109V440.708L130.956 442.544L130.448 442.023L130.646 442.754L129.059 443.771L129.481 437.36L125.699 442.68L124.459 435.104L120.206 443.263L119.772 438.6L113.398 443.263V433.938L108.723 439.183L107.024 429.858L104.048 439.183L102.35 434.521L98.5056 441.44L93.3968 439.109V445.52L89.9992 442.023L92.1196 449.599L88.9576 450.318L87.0232 450.765L77.252 453.679L105.301 453.096L97.2284 458.341L139.661 457.101L137.714 458.341L184.673 456.94L182.516 458.341L229.474 456.94L227.329 458.341L274.276 456.94L272.13 458.341L319.089 456.94L316.932 458.341L351.825 457.3L349.891 458.341L408.778 456.878L406.534 458.341L463.76 456.655L461.144 458.366L496.694 457.3L532.258 458.366L524.16 453.121ZM133.92 443.449V445.544L133.3 444.9L133.92 443.449ZM140.281 453.232L145.824 453.121L144.299 454.1L140.281 453.232ZM177.481 449.624L176.812 449.773L177.27 448.843L177.481 449.624ZM222.282 449.624L221.613 449.773L221.96 448.88L222.282 449.624ZM226.002 453.344L235.464 453.146L232.872 454.832L226.002 453.344ZM267.084 449.624L266.414 449.773L266.873 448.843L267.084 449.624ZM270.804 453.344L280.265 453.146L277.673 454.832L270.804 453.344ZM311.885 449.624L311.215 449.773L311.674 448.843L311.885 449.624ZM315.605 453.344L325.066 453.146L322.4 454.807L315.605 453.344ZM359.513 453.146H359.6H359.513ZM402.454 453.394L414.668 453.146L411.68 455.08L402.454 453.394ZM464.219 456.419L450.864 453.53L469.253 453.146L464.219 456.419ZM496.992 446.673H496.732H496.484L496.732 446.078L496.992 446.673Z" fill="#263238"/>
<path opacity="0.7" d="M524.16 453.121L552.209 453.704L542.438 450.79L540.504 450.343L537.342 449.624L539.462 442.048L536.064 445.544V439.134L530.956 441.44L527.136 434.446L525.438 439.109L522.462 429.784L520.8 439.134L516.125 433.888V443.213L509.739 438.551L509.318 443.213L505.064 435.054L503.824 442.63L500.005 437.385L500.427 443.796L498.294 442.42L499.447 439.716L496.67 441.44L493.979 439.716L495.132 442.42L492.999 443.796L493.421 437.385L489.589 442.68L488.349 435.104L484.108 443.263L483.674 438.6L477.301 443.263V433.938L472.626 439.183L470.927 429.858L467.951 439.183L466.24 434.471L462.384 441.44L457.287 439.109V445.52L453.84 442.048L455.96 449.624L452.786 450.343L450.864 450.79L448.905 451.372H444.788L447.342 446.127L441.812 446.71L444.788 439.716L438.414 443.796L438.836 437.385L435.017 442.68L433.777 435.104L429.524 443.263L429.102 438.6L422.728 443.263V433.938L418.054 439.183L416.342 429.858L413.366 439.183L411.68 434.471L407.811 441.44L402.702 439.109V445.52L399.28 442.048L401.413 449.624L398.238 450.343L396.304 450.79H396.155L398.908 446.09L392.274 446.673L395.845 439.679L388.182 443.759L388.69 437.348L384.102 442.593L382.565 435.017L377.456 443.176L376.948 438.514L369.284 443.176V433.851L363.667 439.096L361.621 429.772L358.05 439.096L356.004 434.434L351.428 441.44L349.023 440.522L349.234 437.36L347.386 439.84L345.303 439.047V441.886L344.137 434.967L339.884 443.126L339.462 438.464L333.076 443.126V433.802L328.402 439.047L326.703 429.722L323.727 439.047L322.028 434.384L318.209 441.44L313.1 439.109V445.52L309.702 442.023L310.942 446.313L307.446 446.685L310.422 439.692L304.048 443.771L304.47 437.36L300.601 442.68L299.361 435.104L295.12 443.213L294.698 438.551L288.312 443.213V433.888L283.638 439.134L281.939 429.809L278.963 439.134L277.264 434.471L273.408 441.44L268.299 439.109V445.52L264.901 442.023L266.141 446.313L262.644 446.685L265.62 439.692L259.16 443.796L259.582 437.385L255.8 442.68L254.56 435.104L250.319 443.263L249.885 438.6L243.511 443.263V433.938L238.836 439.183L237.138 429.858L234.162 439.183L232.463 434.521L228.594 441.44L223.498 439.109V445.52L220.1 442.023L221.34 446.313L217.843 446.685L220.819 439.692L214.433 443.771L214.867 437.36L210.998 442.68L209.758 435.104L205.518 443.263L205.084 438.6L198.71 443.263V433.938L194.035 439.183L192.336 429.858L189.36 439.183L187.662 434.521L183.793 441.44L178.696 439.109V445.52L175.299 442.023L176.539 446.313L173.042 446.685L176.018 439.692L169.632 443.771L170.066 437.36L166.16 442.68L164.92 435.104L160.667 443.263L160.245 438.6L153.872 443.263V433.938L149.197 439.183L147.56 429.809L144.584 439.134L142.885 434.471L138.992 441.44L135.433 439.803V439.692L135.296 439.766L133.846 439.109V440.708L130.956 442.544L130.448 442.023L130.646 442.754L129.059 443.771L129.481 437.36L125.699 442.68L124.459 435.104L120.206 443.263L119.772 438.6L113.398 443.263V433.938L108.723 439.183L107.024 429.858L104.048 439.183L102.35 434.521L98.5056 441.44L93.3968 439.109V445.52L89.9992 442.023L92.1196 449.599L88.9576 450.318L87.0232 450.765L77.252 453.679L105.301 453.096L97.2284 458.341L139.661 457.101L137.714 458.341L184.673 456.94L182.516 458.341L229.474 456.94L227.329 458.341L274.276 456.94L272.13 458.341L319.089 456.94L316.932 458.341L351.825 457.3L349.891 458.341L408.778 456.878L406.534 458.341L463.76 456.655L461.144 458.366L496.694 457.3L532.258 458.366L524.16 453.121ZM133.92 443.449V445.544L133.3 444.9L133.92 443.449ZM140.281 453.232L145.824 453.121L144.299 454.1L140.281 453.232ZM177.481 449.624L176.812 449.773L177.27 448.843L177.481 449.624ZM222.282 449.624L221.613 449.773L221.96 448.88L222.282 449.624ZM226.002 453.344L235.464 453.146L232.872 454.832L226.002 453.344ZM267.084 449.624L266.414 449.773L266.873 448.843L267.084 449.624ZM270.804 453.344L280.265 453.146L277.673 454.832L270.804 453.344ZM311.885 449.624L311.215 449.773L311.674 448.843L311.885 449.624ZM315.605 453.344L325.066 453.146L322.4 454.807L315.605 453.344ZM359.513 453.146H359.6H359.513ZM402.454 453.394L414.668 453.146L411.68 455.08L402.454 453.394ZM464.219 456.419L450.864 453.53L469.253 453.146L464.219 456.419ZM496.992 446.673H496.732H496.484L496.732 446.078L496.992 446.673Z" fill="white"/>
<path d="M249.959 301.99C249.959 301.99 260.958 306.193 266.6 316.349C272.242 326.504 281.716 368.429 281.716 368.429C281.716 368.429 298.852 369.78 302.461 369.78C306.069 369.78 328.625 367.97 328.625 367.97L329.753 374.964C329.753 374.964 314.873 381.288 301.332 382.862C287.792 384.437 272.23 383.768 269.75 382.193C267.27 380.618 254.646 348.576 254.646 348.576C254.646 348.576 251.931 334.366 249.686 324.434C247.442 314.501 245.284 305.462 249.959 301.99Z" fill="white" stroke="#263238" stroke-linecap="round" stroke-linejoin="round"/>
<path d="M264.008 322.053L257.87 334.75L263.599 329.84" stroke="#263238" stroke-linecap="round" stroke-linejoin="round"/>
<path d="M328.6 367.995C328.6 367.995 306.044 369.805 302.436 369.805C298.828 369.805 281.691 368.454 281.691 368.454C281.691 368.454 279.583 359.141 276.731 348.229C270.247 350.626 263.962 353.528 257.932 356.909C261.863 366.519 268.038 381.139 269.688 382.193C272.168 383.768 287.742 384.437 301.27 382.862C314.799 381.288 329.691 374.964 329.691 374.964L328.6 367.995Z" fill="white" stroke="#263238" stroke-linecap="round" stroke-linejoin="round"/>
<path d="M338.78 376.117L332.915 375.894L316.2 381.312L313.943 366.879L326.802 367.548C329.646 365.947 332.582 364.514 335.594 363.258C337.404 362.812 345.303 363.494 345.303 363.494C345.303 363.494 345.749 364.386 344.621 365.068L343.48 365.8C343.48 365.8 350.25 368.044 351.379 368.95C352.507 369.855 350.92 371.888 350.92 371.888C350.744 372.44 350.451 372.946 350.062 373.374C349.672 373.802 349.195 374.141 348.663 374.368C347.106 375.116 345.425 375.574 343.703 375.72C343.703 375.72 340.355 376.117 338.78 376.117Z" fill="#263238" stroke="#263238" stroke-linecap="round" stroke-linejoin="round"/>
<path d="M232.798 458.515C232.798 458.515 238.278 457.957 240.721 455.501C243.164 453.046 237.894 449.091 235.067 451.347C232.24 453.604 231.483 453.617 232.798 458.515Z" fill="white" stroke="#263238" stroke-linecap="round" stroke-linejoin="round"/>
<path d="M228.842 299.162C220.98 302.499 213.864 307.372 207.911 313.497C197.346 324.062 196.751 338.582 194.519 352.16C192.287 365.738 194.147 395.721 194.705 405.48C195.263 415.239 203.757 427.168 219.418 442.444C235.079 457.721 268.423 480.723 279.36 480.723C290.296 480.723 295.318 468.534 293.88 457.895C290.371 432.016 254.299 396.044 252.228 391.716C250.158 387.388 251.286 380.767 251.472 379.638C251.658 378.51 258.453 346.828 260.152 337.962C261.851 329.096 256.754 305.908 252.414 302.882C248.074 299.857 239.407 296.906 228.842 299.162Z" fill="#5C7F67" stroke="#263238" stroke-linecap="round" stroke-linejoin="round"/>
<path d="M238.08 399.119C238.08 399.119 243.747 393.266 248.273 392.708" stroke="#263238" stroke-linecap="round" stroke-linejoin="round"/>
<path d="M194.519 381.759C194.519 381.759 209.982 391.952 245.632 384.4" stroke="#263238" stroke-linecap="round" stroke-linejoin="round"/>
<path d="M197.16 386.88C197.16 386.88 221.675 395.746 244.119 387.822" stroke="#263238" stroke-linecap="round" stroke-linejoin="round"/>
<path d="M229.4 343.294C238.678 343.082 247.804 340.896 256.172 336.883L255.614 339.896" stroke="#263238" stroke-linecap="round" stroke-linejoin="round"/>
<path d="M242.705 441.973C242.705 441.973 263.364 461.999 268.46 464.144" stroke="#263238" stroke-linecap="round" stroke-linejoin="round"/>
<path d="M229.4 428.804C229.4 428.804 231.26 416.404 243.66 404.624" stroke="#263238" stroke-linecap="round" stroke-linejoin="round"/>
<path d="M242.705 441.973C242.705 441.973 233.938 450.653 232.785 458.515L215.636 440.609C214.525 439.822 213.316 439.185 212.04 438.712C211.284 438.712 208.072 445.879 206.187 448.719C204.302 451.558 202.232 448.905 202.467 444.193C202.703 439.481 208.407 430.85 209.349 426.696C210.292 422.542 213.491 419.529 216.318 420.286C219.145 421.042 242.705 441.973 242.705 441.973Z" fill="#263238" stroke="#263238" stroke-linecap="round" stroke-linejoin="round"/>
<path d="M197.916 368.565C203.013 368.379 214.694 365.354 219.79 357.405C224.886 349.457 224.886 330.249 221.303 320.056C218.649 312.53 214.359 310.136 212.3 309.43C210.85 310.67 209.386 311.984 207.911 313.46C197.346 324.024 196.751 338.545 194.519 352.123C193.765 357.608 193.409 363.14 193.452 368.677L197.916 368.565Z" fill="white" stroke="#263238" stroke-linecap="round" stroke-linejoin="round"/>
<path d="M228.842 299.162C224.319 301.029 220.055 303.471 216.157 306.429C218.959 308.138 221.307 310.499 223.002 313.311C226.201 318.965 228.656 335.37 228.656 335.37C228.656 335.37 229.97 335.37 239.022 334.056C244.961 333.103 250.78 331.519 256.382 329.332C255.998 325.004 251.856 304.817 249.959 302.052C249.755 301.756 249.527 301.479 249.277 301.221C242.869 298.338 235.697 297.615 228.842 299.162Z" fill="white" stroke="#263238" stroke-linecap="round" stroke-linejoin="round"/>
<path d="M224.291 312.641C224.291 312.641 232.475 326.157 239.444 324.917C246.413 323.677 246.4 315.096 246.4 315.096" stroke="#263238" stroke-linecap="round" stroke-linejoin="round"/>
<path d="M225.444 285.2C225.444 285.2 224.886 299.906 225.444 304.804C226.002 309.702 233.182 320.267 239.022 319.523C244.863 318.779 244.689 303.49 244.689 303.49C244.689 303.49 234.695 288.784 231.855 286.13C229.016 283.476 226.387 283.514 225.444 285.2Z" fill="white" stroke="#263238" stroke-linecap="round" stroke-linejoin="round"/>
<path d="M225.072 282.72C225.072 282.72 221.352 279.694 219.418 282.336C217.484 284.977 220.732 291.574 223.56 292.516C226.387 293.458 227.28 292.9 227.28 292.9C228.594 296.654 230.302 300.258 232.376 303.651C235.017 307.371 243.313 314.402 248.967 312.331C254.622 310.26 257.275 297.451 258.218 292.156C258.676 289.98 258.991 287.777 259.16 285.56C254.458 284.416 249.659 283.718 244.826 283.476C236.952 283.092 225.072 282.72 225.072 282.72Z" fill="white" stroke="#263238" stroke-linecap="round" stroke-linejoin="round"/>
<path d="M229.226 284.22C229.226 284.22 230.355 290.073 228.656 290.42C226.957 290.768 225.072 282.695 225.072 282.695L229.226 284.22Z" fill="#263238" stroke="#263238" stroke-linecap="round" stroke-linejoin="round"/>
<path d="M252.042 289.875C252.042 289.875 252.985 298.555 251.472 299.311C249.959 300.068 247.33 298.555 247.33 298.555" stroke="#263238" stroke-linecap="round" stroke-linejoin="round"/>
<path d="M222.481 280.24C222.481 280.24 231.979 289.949 240.659 290.78C249.339 291.611 270.419 286.031 271.659 283.762C272.899 281.492 260.71 275.9 260.71 275.9C260.71 275.9 259.259 261.02 257.399 257.3C255.539 253.58 244.392 250.282 235.079 253.171C225.767 256.06 219.579 259.16 219.79 264.331C220.001 269.502 222.481 280.24 222.481 280.24Z" fill="#263238" stroke="#263238" stroke-linecap="round" stroke-linejoin="round"/>
<path d="M228.978 281.009C237.658 281.716 252.997 281.939 260.698 275.937" stroke="white" stroke-linecap="round" stroke-linejoin="round"/>
<path d="M198.102 338.198C198.102 338.198 201.314 354.231 203.571 362.911C205.828 371.591 206.212 374.976 208.097 375.732C209.982 376.489 270.903 366.866 270.903 366.866V360.27L224.886 355.744C224.886 355.744 220.67 325.562 218.686 321.792C218.12 320.651 217.23 319.703 216.127 319.065C215.024 318.428 213.758 318.13 212.486 318.209" fill="white"/>
<path d="M198.102 338.198C198.102 338.198 201.314 354.231 203.571 362.911C205.828 371.591 206.212 374.976 208.097 375.732C209.982 376.489 270.903 366.866 270.903 366.866V360.27L224.886 355.744C224.886 355.744 220.67 325.562 218.686 321.792C218.12 320.651 217.23 319.703 216.127 319.065C215.024 318.428 213.758 318.13 212.486 318.209" stroke="#263238" stroke-linecap="round" stroke-linejoin="round"/>
<path d="M223.423 343.108C219.266 342.977 215.128 343.714 211.272 345.273C207.416 346.831 203.927 349.177 201.029 352.16C201.872 355.992 202.777 359.935 203.509 362.973C205.778 371.653 206.15 375.038 208.035 375.794C209.92 376.551 270.841 366.928 270.841 366.928V360.332L224.824 355.806C224.824 355.806 224.316 349.928 223.423 343.108Z" fill="white" stroke="#263238" stroke-linecap="round" stroke-linejoin="round"/>
<path d="M224.886 355.744C224.886 355.744 216.02 354.987 211.494 359.129" stroke="#263238" stroke-linecap="round" stroke-linejoin="round"/>
<path d="M298.493 355.781C298.493 355.781 305.04 351.85 310.285 350.709L299.472 358.571L301.109 360.704L313.894 355.136C313.894 355.136 308.81 360.381 306.032 361.522C304.376 362.21 302.783 363.04 301.27 364.002L296.31 356.624L298.493 355.781Z" fill="white" stroke="#263238" stroke-linecap="round" stroke-linejoin="round"/>
<path d="M295.033 365.8C295.033 365.8 294.661 367.871 291.45 370.512C288.238 373.153 284.282 372.769 287.308 373.711C290.334 374.653 294.091 373.339 297.86 366.928C301.63 360.517 295.033 365.8 295.033 365.8Z" fill="white" stroke="#263238" stroke-linecap="round" stroke-linejoin="round"/>
<path d="M266.178 358.186L266.935 369.508L277.686 367.028C279.275 367.767 280.937 368.336 282.646 368.726C286.327 368.901 290.014 368.52 293.582 367.598C294.608 367.198 295.685 366.944 296.782 366.842C296.782 366.842 295.467 369.322 296.968 369.322C298.468 369.322 301.692 368.379 302.634 367.052C303.577 365.726 303.391 362.911 303.391 362.911C303.391 362.911 303.763 360.071 302.634 358.571C301.506 357.07 297.674 353.611 295.839 353.859C294.004 354.107 277.363 358 275.999 358.385C274.635 358.769 266.178 358.186 266.178 358.186Z" fill="#263238" stroke="#263238" stroke-linecap="round" stroke-linejoin="round"/>
<path d="M204.898 384.784C204.898 384.784 195.461 397.184 193.961 409.87C192.46 422.555 196.788 438.39 198.288 441.552C199.789 444.714 199.429 447.578 203.385 448.148C207.34 448.719 226.945 448.905 227.9 445.507C228.854 442.11 229.598 397.42 228.842 390.811C228.086 384.202 218.848 381.015 214.892 381.015C211.211 381.003 207.654 382.344 204.898 384.784Z" fill="#5C7F67" stroke="#263238" stroke-linecap="round" stroke-linejoin="round"/>
<path d="M197.346 442.866C207.945 444.104 218.681 443.403 229.028 440.795C229.028 440.795 228.21 489.676 228.78 490.804C229.35 491.933 238.774 503.824 242.172 506.838C245.57 509.851 246.128 510.806 244.057 513.038C241.986 515.27 238.774 517.936 228.78 513.794C218.786 509.652 215.772 501.915 212.933 498.145C210.093 494.376 210.676 493.421 210.676 487.766C210.676 482.112 197.346 442.866 197.346 442.866Z" fill="#263238" stroke="#263238" stroke-linecap="round" stroke-linejoin="round"/>
<path d="M206.46 443.064C203.838 438.424 201.955 433.404 200.88 428.184" stroke="#263238" stroke-linecap="round" stroke-linejoin="round"/>
<path d="M217 443.064C217 443.064 221.34 436.244 220.1 431.284" stroke="#263238" stroke-linecap="round" stroke-linejoin="round"/>
<path d="M141.36 446.003L142.674 470.431C142.734 471.575 143.125 472.678 143.801 473.603C144.478 474.528 145.409 475.235 146.481 475.639C154.752 478.855 163.928 478.855 172.199 475.639C173.265 475.24 174.192 474.54 174.867 473.625C175.543 472.709 175.939 471.617 176.006 470.481L177.543 446.016L141.36 446.003Z" fill="#F87272" stroke="#263238" stroke-linecap="round" stroke-linejoin="round"/>
<path d="M139.574 437.646V446.326C139.574 447.863 148.416 449.116 159.315 449.116C170.215 449.116 179.056 447.876 179.056 446.326V437.646H139.574Z" fill="white" stroke="#263238" stroke-linecap="round" stroke-linejoin="round"/>
<path d="M159.315 440.436C170.218 440.436 179.056 439.186 179.056 437.646C179.056 436.105 170.218 434.856 159.315 434.856C148.413 434.856 139.574 436.105 139.574 437.646C139.574 439.186 148.413 440.436 159.315 440.436Z" fill="white" stroke="#263238" stroke-linecap="round" stroke-linejoin="round"/>
<path d="M141.744 438.96C145.018 439.865 151.664 440.485 159.315 440.485C166.966 440.485 173.612 439.865 176.886 438.96C173.612 438.067 166.966 437.447 159.315 437.447C151.664 437.447 145.08 438.018 141.744 438.96Z" fill="#263238" stroke="#263238" stroke-linecap="round" stroke-linejoin="round"/>
<path d="M155.521 419.926C155.521 419.926 153.996 431.086 155.012 438.402H165.887C167.953 432.871 169.647 427.208 170.959 421.451L162.862 423.472L155.521 419.926Z" fill="white" stroke="#263238" stroke-linecap="round" stroke-linejoin="round"/>
<path d="M163.767 418.587H163.519C163.195 418.544 162.884 418.438 162.601 418.275C162.319 418.111 162.072 417.894 161.874 417.634C161.675 417.375 161.53 417.079 161.447 416.764C161.363 416.449 161.342 416.12 161.386 415.797L164.164 395.386C164.207 395.061 164.314 394.747 164.478 394.462C164.643 394.178 164.862 393.929 165.122 393.729C165.383 393.529 165.681 393.383 165.998 393.298C166.316 393.213 166.647 393.192 166.972 393.235C167.298 393.278 167.612 393.385 167.896 393.55C168.181 393.714 168.43 393.933 168.63 394.194C168.829 394.455 168.976 394.752 169.061 395.07C169.145 395.387 169.167 395.718 169.124 396.044L166.358 416.466C166.27 417.08 165.954 417.638 165.474 418.03C164.995 418.423 164.386 418.621 163.767 418.587Z" fill="#263238" stroke="#263238" stroke-linecap="round" stroke-linejoin="round"/>
<path d="M162.056 430.193H161.932C161.608 430.147 161.317 429.975 161.119 429.715C160.922 429.455 160.835 429.128 160.878 428.804L162.626 415.946C162.67 415.617 162.844 415.319 163.108 415.118C163.371 414.917 163.705 414.829 164.033 414.873C164.362 414.917 164.66 415.091 164.861 415.355C165.062 415.619 165.15 415.952 165.106 416.28L163.358 429.139C163.312 429.446 163.152 429.724 162.911 429.919C162.67 430.114 162.365 430.212 162.056 430.193Z" fill="white" stroke="#263238" stroke-linecap="round" stroke-linejoin="round"/>
<path d="M376.29 447.553L377.617 471.981C377.673 473.126 378.064 474.23 378.74 475.156C379.417 476.081 380.35 476.788 381.424 477.189C389.695 480.405 398.871 480.405 407.142 477.189C408.206 476.79 409.131 476.089 409.805 475.174C410.479 474.258 410.872 473.166 410.936 472.031L412.486 447.566L376.29 447.553Z" fill="#F87272" stroke="#263238" stroke-linecap="round" stroke-linejoin="round"/>
<path d="M374.48 439.196V447.876C374.48 449.413 383.321 450.666 394.221 450.666C405.12 450.666 413.962 449.426 413.962 447.876V439.196H374.48Z" fill="white" stroke="#263238" stroke-linecap="round" stroke-linejoin="round"/>
<path d="M394.258 441.986C405.161 441.986 413.999 440.737 413.999 439.196C413.999 437.655 405.161 436.406 394.258 436.406C383.355 436.406 374.517 437.655 374.517 439.196C374.517 440.737 383.355 441.986 394.258 441.986Z" fill="white" stroke="#263238" stroke-linecap="round" stroke-linejoin="round"/>
<path d="M376.687 440.46C379.961 441.366 386.607 441.986 394.258 441.986C401.909 441.986 408.555 441.366 411.829 440.46C408.555 439.568 401.909 438.948 394.258 438.948C386.607 438.948 379.961 439.568 376.687 440.46Z" fill="#263238" stroke="#263238" stroke-linecap="round" stroke-linejoin="round"/>
<path d="M395.225 440.584C395.225 440.584 394.295 396.564 392.435 391.294C390.575 386.024 379.415 379.824 379.415 383.234C379.513 385.431 380.392 387.52 381.895 389.124C381.895 389.124 363.915 386.644 367.325 390.984C370.735 395.324 378.485 393.464 378.485 393.464C378.485 393.464 360.815 398.734 369.805 399.974C374.735 400.695 379.704 401.109 384.685 401.214C384.685 401.214 379.105 406.174 383.755 406.174C386.292 406.241 388.817 405.82 391.195 404.934L393.365 440.584H395.225Z" fill="#5C7F67"/>
<path d="M396.081 440.584L392.435 391.294C392.435 391.294 404.835 377.964 405.765 381.374C406.695 384.784 400.805 388.504 403.285 388.504C405.765 388.504 419.715 380.754 421.575 386.334C423.435 391.914 402.045 393.464 405.455 395.324C408.865 397.184 417.855 396.874 411.035 399.044C404.215 401.214 393.675 403.074 397.085 404.624C400.495 406.174 398.945 407.104 397.705 408.654L397.085 440.584H396.081Z" fill="#5C7F67"/>
<path d="M390.265 440.894C390.265 440.894 386.545 434.384 386.545 431.284C386.545 428.184 387.475 423.844 385.615 419.504C383.755 415.164 378.485 419.814 377.245 420.744C376.005 421.674 372.285 414.544 369.495 416.094C366.705 417.644 371.665 420.434 370.735 421.674C369.805 422.914 355.545 418.884 355.545 423.224C355.545 427.564 369.495 423.844 370.735 425.394C371.975 426.944 362.365 429.114 367.325 430.664C372.285 432.214 375.385 427.254 375.695 429.114C376.005 430.974 368.255 433.144 374.145 434.694C380.035 436.244 382.205 434.384 384.065 435.314C385.925 436.244 388.715 440.894 388.715 440.894H390.265Z" fill="#5C7F67"/>
<path d="M398.325 440.894C398.325 440.894 402.045 434.384 402.045 431.284C402.045 428.184 401.115 423.844 402.975 419.504C404.835 415.164 410.105 419.814 411.345 420.744C412.585 421.674 416.305 414.544 419.095 416.094C421.885 417.644 416.925 420.434 417.855 421.674C418.785 422.914 433.045 418.884 433.045 423.224C433.045 427.564 419.095 423.844 417.855 425.394C416.615 426.944 426.225 429.114 421.265 430.664C416.305 432.214 413.205 427.254 412.895 429.114C412.585 430.974 420.335 433.144 414.445 434.694C408.555 436.244 406.385 434.384 404.525 435.314C402.665 436.244 399.875 440.894 399.875 440.894H398.325Z" fill="#5C7F67"/>
<path d="M393.365 440.584C393.365 440.584 391.505 412.684 390.885 411.444C390.265 410.204 386.235 411.754 381.275 413.924C376.315 416.094 378.175 415.164 375.385 414.234C372.595 413.304 368.875 414.544 363.915 415.474C358.955 416.404 360.195 410.204 365.465 408.344C368.554 407.235 371.795 406.608 375.075 406.484C375.075 406.484 368.875 403.694 374.455 402.764C380.035 401.834 386.545 406.174 389.645 408.034C390.494 408.468 391.238 409.081 391.827 409.83C392.416 410.579 392.835 411.447 393.055 412.374L395.225 440.584H393.365Z" fill="#5C7F67"/>
<path d="M396.081 440.584C396.081 440.584 397.941 412.684 398.561 411.444C399.181 410.204 403.211 411.754 408.171 413.924C413.131 416.094 411.271 415.164 414.061 414.234C416.851 413.304 420.571 414.544 425.531 415.474C430.491 416.404 429.251 410.204 423.981 408.344C420.892 407.235 417.651 406.608 414.371 406.484C414.371 406.484 420.571 403.694 414.991 402.764C409.411 401.834 402.901 406.174 399.801 408.034C398.952 408.468 398.208 409.081 397.619 409.83C397.03 410.579 396.611 411.447 396.391 412.374L394.221 440.584H396.081Z" fill="#5C7F67"/>
<path d="M427.292 447.553L428.618 471.981C428.678 473.126 429.069 474.228 429.745 475.153C430.422 476.078 431.353 476.785 432.425 477.189C440.696 480.405 449.872 480.405 458.143 477.189C459.209 476.79 460.136 476.09 460.811 475.175C461.487 474.259 461.883 473.167 461.95 472.031L463.487 447.566L427.292 447.553Z" fill="#F87272" stroke="#263238" stroke-linecap="round" stroke-linejoin="round"/>
<path d="M425.518 439.196V447.876C425.518 449.413 434.36 450.666 445.259 450.666C456.159 450.666 465 449.426 465 447.876V439.196H425.518Z" fill="white" stroke="#263238" stroke-linecap="round" stroke-linejoin="round"/>
<path d="M445.259 441.986C456.162 441.986 465 440.737 465 439.196C465 437.655 456.162 436.406 445.259 436.406C434.357 436.406 425.518 437.655 425.518 439.196C425.518 440.737 434.357 441.986 445.259 441.986Z" fill="white" stroke="#263238" stroke-linecap="round" stroke-linejoin="round"/>
<path d="M427.701 440.46C430.962 441.366 437.621 441.986 445.259 441.986C452.898 441.986 459.569 441.366 462.83 440.46C459.569 439.568 452.91 438.948 445.259 438.948C437.608 438.948 430.962 439.568 427.701 440.46Z" fill="#263238" stroke="#263238" stroke-linecap="round" stroke-linejoin="round"/>
<path d="M435.376 419.802C438.565 426.537 441.162 433.536 443.139 440.721C443.139 440.721 442.395 415.76 440.597 406.497" stroke="#263238" stroke-width="0.5" stroke-linecap="round" stroke-linejoin="round"/>
<path d="M452.699 412.92C452.699 412.92 446.127 427.118 444.937 440.572" stroke="#263238" stroke-width="0.5" stroke-linecap="round" stroke-linejoin="round"/>
<path d="M454.348 424.725C454.348 424.725 447.776 435.042 447.02 440.721" stroke="#263238" stroke-width="0.5" stroke-linecap="round" stroke-linejoin="round"/>
<path d="M441.948 430.106C442.992 433.352 443.641 436.712 443.883 440.113" stroke="#263238" stroke-width="0.5" stroke-linecap="round" stroke-linejoin="round"/>
<path d="M441.043 404.116C441.043 404.116 438.315 401.028 436.294 402.033C434.273 403.037 433.938 404.724 436.964 405.393C439.989 406.063 433.132 405.678 434.484 409.039C435.835 412.399 439.121 406.559 440.46 408.592C441.8 410.626 441.7 412.424 443.598 411.581C447.032 410.08 443.04 407.7 444.044 406.348C445.048 404.996 447.07 406.075 447.07 404.054C447.07 402.033 444.416 400.408 441.043 404.116Z" fill="#5C7F67"/>
<path d="M453.753 410.986C453.753 410.986 451.013 407.898 448.992 408.902C446.97 409.907 446.636 411.593 449.661 412.275C452.687 412.957 445.83 412.548 447.181 415.908C448.533 419.269 451.819 413.428 453.158 415.462C454.497 417.496 454.398 419.306 456.295 418.45C459.742 416.962 455.737 414.569 456.754 413.23C457.771 411.891 459.767 412.945 459.767 410.924C459.767 408.902 457.114 407.278 453.753 410.986Z" fill="#5C7F67"/>
<path d="M442.395 428.47C442.395 428.47 439.654 425.382 437.633 426.386C435.612 427.391 435.29 429.077 438.315 429.747C441.341 430.416 434.471 430.032 435.835 433.392C437.199 436.753 440.46 430.912 441.812 432.946C443.164 434.98 442.99 436.778 444.949 435.934C448.384 434.434 444.379 432.053 445.396 430.702C446.412 429.35 448.409 430.429 448.409 428.408C448.409 426.386 445.755 424.762 442.395 428.47Z" fill="#5C7F67"/>
<path d="M435.823 417.706C435.823 417.706 433.082 414.619 431.061 415.636C429.04 416.652 428.705 418.326 431.731 418.996C434.756 419.666 427.899 419.269 429.251 422.642C430.602 426.014 433.876 420.162 435.228 422.183C436.579 424.204 436.406 426.027 438.365 425.171C441.8 423.683 437.794 421.29 438.811 419.951C439.828 418.612 441.824 419.666 441.824 417.644C441.824 415.623 439.183 414.011 435.823 417.706Z" fill="#5C7F67"/>
<path d="M455.241 423.237C455.241 423.237 452.501 420.149 450.492 421.154C448.483 422.158 448.136 423.844 451.162 424.526C454.187 425.208 447.318 424.799 448.682 428.16C450.046 431.52 453.307 425.68 454.658 427.713C456.01 429.747 455.898 431.557 457.796 430.702C461.23 429.214 457.238 426.82 458.242 425.481C459.246 424.142 461.255 425.196 461.255 423.175C461.255 421.154 458.602 419.529 455.241 423.237Z" fill="#5C7F67"/>
<path d="M317.056 484.592C317.056 484.592 310.223 463.388 331.192 422.493C352.16 381.598 332.246 315.555 332.246 315.555" stroke="#5C7F67" stroke-width="3" stroke-linecap="round" stroke-linejoin="round"/>
<path d="M303.936 483.315C303.936 483.315 296.596 467.592 304.978 444.515C313.36 421.439 311.178 408.357 311.178 408.357" stroke="#5C7F67" stroke-width="3" stroke-linecap="round" stroke-linejoin="round"/>
<path d="M335.842 412.04C335.842 412.04 352.16 392.088 358.459 367.97C359.91 362.402 361.026 357.504 361.894 353.251" stroke="#5C7F67" stroke-width="3" stroke-linecap="round" stroke-linejoin="round"/>
<path d="M323.541 484.976C323.541 484.976 333.287 465.484 335.395 437.174C336.61 419.876 334.836 402.497 330.15 385.801" stroke="#5C7F67" stroke-width="3" stroke-linecap="round" stroke-linejoin="round"/>
<path d="M324.744 422.418C324.657 423.038 323.801 423.497 323.64 424.092C323.479 424.688 323.987 425.531 323.752 426.101C323.516 426.672 322.574 426.907 322.264 427.44C321.954 427.974 322.264 428.916 321.842 429.412C321.42 429.908 320.49 429.883 320.044 430.317C319.598 430.751 319.635 431.731 319.139 432.115C318.643 432.5 317.713 432.214 317.18 432.524C316.646 432.834 316.411 433.764 315.828 434.025C315.245 434.285 314.427 433.752 313.832 433.913C313.236 434.074 312.765 434.93 312.145 435.017C311.525 435.104 310.905 434.384 310.236 434.384C309.566 434.384 308.934 435.091 308.314 435.017C307.694 434.942 307.235 434.074 306.64 433.913C306.044 433.752 305.201 434.26 304.631 434.025C304.06 433.789 303.825 432.847 303.292 432.537C302.758 432.227 301.816 432.537 301.32 432.115C300.824 431.694 300.849 430.764 300.415 430.317C299.981 429.871 299.001 429.908 298.617 429.412C298.232 428.916 298.518 427.986 298.208 427.453C297.898 426.92 296.968 426.684 296.707 426.101C296.447 425.518 296.98 424.7 296.819 424.105C296.658 423.51 295.802 423.038 295.715 422.418C295.628 421.798 296.348 421.178 296.348 420.509C296.348 419.839 295.641 419.207 295.715 418.599C295.79 417.992 296.658 417.508 296.819 416.913C296.98 416.318 296.472 415.474 296.707 414.904C296.943 414.334 297.947 414.098 298.208 413.565C298.468 413.032 298.208 412.089 298.617 411.593C299.026 411.097 299.968 411.122 300.415 410.688C300.861 410.254 300.824 409.274 301.32 408.89C301.816 408.506 302.746 408.791 303.292 408.481C303.837 408.171 304.048 407.241 304.631 406.98C305.214 406.72 306.032 407.253 306.64 407.092C307.247 406.931 307.694 406.075 308.314 405.988C308.934 405.902 309.554 406.621 310.236 406.621C310.918 406.621 311.476 405.914 312.145 405.988C312.815 406.063 313.224 406.931 313.819 407.092C314.414 407.253 315.258 406.745 315.828 406.98C316.398 407.216 316.634 408.22 317.167 408.481C317.7 408.741 318.643 408.481 319.139 408.89C319.635 409.299 319.61 410.242 320.044 410.688C320.478 411.134 321.458 411.097 321.842 411.593C322.226 412.089 321.941 413.019 322.251 413.565C322.561 414.11 323.491 414.321 323.752 414.904C324.012 415.487 323.479 416.305 323.64 416.913C323.801 417.52 324.657 417.967 324.744 418.587C324.83 419.207 324.111 419.827 324.111 420.509C324.111 421.191 324.88 421.798 324.744 422.418ZM344.584 381.064C344.584 380.271 345.464 379.428 345.365 378.659C345.266 377.89 344.125 377.282 343.988 376.538C343.852 375.794 344.422 374.728 344.125 374.058C343.827 373.389 342.624 373.042 342.24 372.36C341.856 371.678 342.24 370.512 341.707 369.88C341.174 369.247 340.008 369.284 339.45 368.726C338.892 368.168 338.929 366.953 338.309 366.47C337.689 365.986 336.511 366.346 335.829 365.949C335.147 365.552 334.862 364.362 334.143 364.064C333.424 363.766 332.37 364.399 331.663 364.2C330.956 364.002 330.324 362.96 329.53 362.812C328.736 362.663 327.918 363.605 327.124 363.605C326.331 363.605 325.488 362.712 324.719 362.812C323.95 362.911 323.342 364.052 322.598 364.2C321.854 364.349 320.788 363.766 320.118 364.064C319.449 364.362 319.102 365.552 318.42 365.949C317.738 366.346 316.572 365.949 315.94 366.47C315.307 366.99 315.357 368.181 314.799 368.726C314.241 369.272 313.026 369.26 312.542 369.88C312.058 370.5 312.406 371.678 312.021 372.36C311.637 373.042 310.434 373.314 310.136 374.046C309.839 374.778 310.471 375.807 310.26 376.526C310.05 377.245 309.02 377.865 308.884 378.646C308.748 379.428 309.678 380.258 309.678 381.052C309.678 381.846 308.785 382.701 308.884 383.47C308.983 384.239 310.124 384.834 310.273 385.59C310.422 386.347 309.826 387.401 310.136 388.07C310.446 388.74 311.624 389.087 312.021 389.757C312.418 390.426 312.021 391.617 312.542 392.237C313.063 392.857 314.253 392.832 314.799 393.378C315.344 393.923 315.32 395.163 315.952 395.647C316.584 396.13 317.75 395.771 318.432 396.168C319.114 396.564 319.399 397.755 320.131 398.052C320.862 398.35 321.892 397.718 322.611 397.916C323.33 398.114 323.95 399.156 324.731 399.292C325.512 399.429 326.343 398.511 327.137 398.511C327.93 398.511 328.774 399.392 329.542 399.292C330.311 399.193 330.919 398.114 331.675 397.916C332.432 397.718 333.486 398.35 334.155 398.052C334.825 397.755 335.172 396.552 335.842 396.168C336.511 395.783 337.702 396.168 338.322 395.634C338.942 395.101 338.917 393.936 339.462 393.378C340.008 392.82 341.248 392.857 341.719 392.237C342.19 391.617 341.856 390.439 342.252 389.757C342.649 389.075 343.84 388.79 344.137 388.07C344.435 387.351 343.79 386.297 344.001 385.59C344.212 384.884 345.241 384.251 345.377 383.47C345.514 382.689 344.534 381.92 344.534 381.064H344.584ZM346.654 451.36C346.654 450.566 347.535 449.723 347.436 448.954C347.336 448.186 346.258 447.578 346.059 446.822C345.861 446.065 346.493 445.024 346.196 444.342C345.898 443.66 344.695 443.337 344.311 442.655C343.926 441.973 344.311 440.795 343.778 440.175C343.244 439.555 342.079 439.592 341.521 439.034C340.963 438.476 341 437.249 340.38 436.778C339.76 436.306 338.582 436.641 337.9 436.244C337.218 435.848 336.933 434.67 336.214 434.36C335.494 434.05 334.44 434.707 333.734 434.496C333.027 434.285 332.394 433.256 331.601 433.12C330.807 432.983 329.989 433.913 329.195 433.913C328.402 433.913 327.558 433.02 326.79 433.12C326.021 433.219 325.413 434.298 324.669 434.496C323.925 434.694 322.859 434.062 322.189 434.36C321.52 434.657 321.172 435.86 320.49 436.244C319.808 436.629 318.643 436.244 318.01 436.778C317.378 437.311 317.415 438.476 316.857 439.034C316.299 439.592 315.084 439.555 314.6 440.175C314.117 440.795 314.464 441.973 314.08 442.655C313.695 443.337 312.492 443.622 312.195 444.354C311.897 445.086 312.53 446.115 312.331 446.834C312.133 447.553 311.091 448.161 310.942 448.954C310.794 449.748 311.736 450.566 311.736 451.36C311.736 452.154 310.843 452.997 310.942 453.766C311.042 454.534 312.12 455.142 312.331 455.898C312.542 456.655 311.897 457.696 312.195 458.378C312.492 459.06 313.683 459.383 314.08 460.065C314.476 460.747 314.08 461.925 314.6 462.545C315.121 463.165 316.312 463.128 316.857 463.686C317.403 464.244 317.39 465.471 318.01 465.942C318.63 466.414 319.808 466.079 320.49 466.476C321.172 466.872 321.445 468.05 322.177 468.36C322.908 468.67 323.938 468.013 324.657 468.224C325.376 468.435 325.996 469.464 326.777 469.6C327.558 469.737 328.389 468.807 329.183 468.807C329.976 468.807 330.832 469.7 331.601 469.6C332.37 469.501 332.965 468.36 333.721 468.224C334.478 468.088 335.532 468.658 336.201 468.36C336.871 468.063 337.218 466.86 337.888 466.476C338.557 466.091 339.748 466.476 340.368 465.942C340.988 465.409 340.963 464.244 341.508 463.686C342.054 463.128 343.294 463.165 343.778 462.545C344.261 461.925 343.902 460.747 344.298 460.065C344.695 459.383 345.886 459.098 346.183 458.366C346.481 457.634 345.848 456.605 346.047 455.886C346.245 455.167 347.287 454.559 347.423 453.766C347.56 452.972 346.654 452.203 346.654 451.36ZM310.484 461.354C310.484 460.821 311.389 460.251 311.314 459.742C311.24 459.234 310.223 458.899 310.074 458.403C309.926 457.907 310.67 457.101 310.471 456.618C310.273 456.134 309.231 456.097 308.946 455.65C308.661 455.204 309.169 454.237 308.859 453.828C308.549 453.418 307.495 453.654 307.123 453.282C306.751 452.91 306.987 451.868 306.578 451.558C306.168 451.248 305.214 451.732 304.767 451.472C304.321 451.211 304.271 450.145 303.788 449.946C303.304 449.748 302.548 450.467 302.014 450.331C301.481 450.194 301.196 449.178 300.675 449.091C300.154 449.004 299.584 449.934 299.063 449.934C298.542 449.934 297.96 449.029 297.451 449.091C296.943 449.153 296.608 450.194 296.112 450.331C295.616 450.467 294.81 449.748 294.339 449.946C293.868 450.145 293.806 451.186 293.359 451.472C292.913 451.757 291.958 451.248 291.549 451.558C291.14 451.868 291.363 452.922 291.003 453.294C290.644 453.666 289.577 453.431 289.267 453.84C288.957 454.249 289.441 455.204 289.18 455.65C288.92 456.097 287.854 456.146 287.655 456.63C287.457 457.114 288.176 457.87 288.052 458.403C287.928 458.936 286.886 459.222 286.812 459.742C286.738 460.263 287.643 460.821 287.643 461.354C287.643 461.888 286.738 462.458 286.812 462.966C286.886 463.475 287.903 463.81 288.052 464.306C288.201 464.802 287.457 465.546 287.655 466.079C287.854 466.612 288.895 466.612 289.193 467.058C289.49 467.505 288.957 468.46 289.267 468.869C289.577 469.278 290.631 469.055 291.003 469.414C291.375 469.774 291.14 470.828 291.549 471.15C291.958 471.473 292.913 470.964 293.359 471.225C293.806 471.485 293.855 472.564 294.339 472.762C294.822 472.961 295.579 472.229 296.112 472.366C296.645 472.502 296.93 473.531 297.451 473.606C297.972 473.68 298.542 472.762 299.063 472.762C299.584 472.762 300.167 473.668 300.675 473.606C301.184 473.544 301.518 472.514 302.014 472.366C302.51 472.217 303.316 472.961 303.788 472.762C304.259 472.564 304.321 471.522 304.767 471.225C305.214 470.927 306.168 471.46 306.578 471.15C306.987 470.84 306.764 469.774 307.123 469.414C307.483 469.055 308.549 469.278 308.859 468.869C309.169 468.46 308.686 467.505 308.946 467.058C309.206 466.612 310.273 466.562 310.471 466.079C310.67 465.595 309.95 464.839 310.087 464.306C310.223 463.772 311.24 463.487 311.327 462.966C311.414 462.446 310.484 461.925 310.484 461.404V461.354ZM348.725 317.514C348.725 316.721 349.618 315.878 349.519 315.109C349.42 314.34 348.341 313.732 348.142 312.976C347.944 312.22 348.576 311.178 348.279 310.496C347.981 309.814 346.778 309.479 346.394 308.797C346.01 308.115 346.394 306.937 345.861 306.317C345.328 305.697 344.162 305.734 343.604 305.176C343.046 304.618 343.083 303.391 342.463 302.92C341.843 302.448 340.665 302.783 339.983 302.386C339.301 301.99 339.016 300.812 338.284 300.502C337.553 300.192 336.524 300.849 335.804 300.638C335.085 300.427 334.478 299.398 333.684 299.262C332.89 299.125 332.072 300.055 331.278 300.055C330.485 300.055 329.642 299.162 328.873 299.262C328.104 299.361 327.496 300.502 326.74 300.638C325.984 300.774 324.942 300.204 324.26 300.502C323.578 300.799 323.256 302.002 322.574 302.386C321.892 302.771 320.714 302.386 320.094 302.92C319.474 303.453 319.511 304.618 318.953 305.176C318.395 305.734 317.167 305.697 316.696 306.317C316.225 306.937 316.56 308.115 316.163 308.797C315.766 309.479 314.588 309.764 314.278 310.496C313.968 311.228 314.625 312.257 314.414 312.976C314.204 313.695 313.174 314.303 313.038 315.096C312.902 315.89 313.832 316.708 313.832 317.502C313.832 318.296 312.939 319.139 313.038 319.908C313.137 320.676 314.216 321.284 314.414 322.04C314.613 322.797 313.98 323.838 314.278 324.52C314.576 325.202 315.778 325.525 316.163 326.207C316.547 326.889 316.163 328.067 316.696 328.687C317.229 329.307 318.395 329.27 318.953 329.828C319.511 330.386 319.474 331.613 320.094 332.084C320.714 332.556 321.892 332.221 322.574 332.618C323.256 333.014 323.541 334.192 324.272 334.502C325.004 334.812 326.033 334.155 326.752 334.366C327.472 334.577 328.079 335.606 328.873 335.742C329.666 335.879 330.485 334.949 331.278 334.949C332.072 334.949 332.915 335.842 333.684 335.742C334.453 335.643 335.06 334.564 335.817 334.366C336.573 334.168 337.615 334.8 338.297 334.502C338.979 334.205 339.301 333.002 339.983 332.618C340.665 332.233 341.843 332.618 342.463 332.084C343.083 331.551 343.046 330.386 343.604 329.828C344.162 329.27 345.39 329.307 345.861 328.687C346.332 328.067 345.997 326.889 346.394 326.207C346.791 325.525 347.969 325.24 348.279 324.508C348.589 323.776 347.932 322.747 348.142 322.028C348.353 321.309 349.382 320.701 349.519 319.908C349.655 319.114 348.725 318.32 348.725 317.527V317.514ZM380.767 349.544C380.767 348.75 381.647 347.907 381.548 347.138C381.449 346.369 380.37 345.762 380.172 345.018C379.973 344.274 380.606 343.207 380.308 342.538C380.01 341.868 378.808 341.521 378.423 340.839C378.039 340.157 378.423 338.991 377.89 338.359C377.357 337.726 376.191 337.764 375.633 337.206C375.075 336.648 375.112 335.432 374.492 334.949C373.872 334.465 372.694 334.825 372.012 334.428C371.33 334.031 371.045 332.841 370.326 332.543C369.607 332.246 368.553 332.878 367.846 332.68C367.139 332.481 366.507 331.44 365.726 331.291C364.944 331.142 364.101 332.084 363.308 332.084C362.514 332.084 361.671 331.192 360.902 331.291C360.133 331.39 359.526 332.531 358.782 332.68C358.038 332.828 356.971 332.246 356.302 332.543C355.632 332.841 355.285 334.031 354.603 334.428C353.921 334.825 352.755 334.428 352.123 334.949C351.49 335.47 351.528 336.66 350.97 337.206C350.412 337.751 349.196 337.739 348.713 338.359C348.229 338.979 348.576 340.157 348.192 340.839C347.808 341.521 346.605 341.794 346.307 342.525C346.01 343.257 346.642 344.286 346.444 345.005C346.245 345.724 345.204 346.344 345.055 347.126C344.906 347.907 345.848 348.738 345.848 349.531C345.848 350.325 344.956 351.18 345.055 352.011C345.154 352.842 346.233 353.375 346.444 354.132C346.654 354.888 346.01 355.942 346.307 356.612C346.605 357.281 347.795 357.628 348.192 358.298C348.589 358.968 348.192 360.158 348.713 360.778C349.234 361.398 350.424 361.373 350.97 361.919C351.515 362.464 351.503 363.704 352.123 364.188C352.743 364.672 353.921 364.312 354.603 364.709C355.285 365.106 355.558 366.296 356.289 366.594C357.021 366.891 358.05 366.259 358.769 366.457C359.488 366.656 360.108 367.697 360.89 367.834C361.671 367.97 362.502 367.052 363.295 367.052C364.089 367.052 364.944 367.933 365.713 367.834C366.482 367.734 367.077 366.656 367.834 366.457C368.59 366.259 369.644 366.891 370.314 366.594C370.983 366.296 371.33 365.093 372 364.709C372.67 364.324 373.86 364.709 374.48 364.176C375.1 363.642 375.075 362.477 375.621 361.919C376.166 361.361 377.406 361.398 377.89 360.778C378.374 360.158 378.014 358.98 378.411 358.298C378.808 357.616 379.998 357.331 380.296 356.612C380.593 355.892 379.961 354.838 380.159 354.132C380.358 353.425 381.399 352.792 381.536 352.011C381.672 351.23 380.767 350.362 380.767 349.556V349.544Z" fill="#5C7F67"/>
<path opacity="0.53" d="M324.744 422.418C324.657 423.038 323.801 423.497 323.64 424.092C323.479 424.688 323.987 425.531 323.752 426.101C323.516 426.672 322.574 426.907 322.264 427.44C321.954 427.974 322.264 428.916 321.842 429.412C321.42 429.908 320.49 429.883 320.044 430.317C319.598 430.751 319.635 431.731 319.139 432.115C318.643 432.5 317.713 432.214 317.18 432.524C316.646 432.834 316.411 433.764 315.828 434.025C315.245 434.285 314.427 433.752 313.832 433.913C313.236 434.074 312.765 434.93 312.145 435.017C311.525 435.104 310.905 434.384 310.236 434.384C309.566 434.384 308.934 435.091 308.314 435.017C307.694 434.942 307.235 434.074 306.64 433.913C306.044 433.752 305.201 434.26 304.631 434.025C304.06 433.789 303.825 432.847 303.292 432.537C302.758 432.227 301.816 432.537 301.32 432.115C300.824 431.694 300.849 430.764 300.415 430.317C299.981 429.871 299.001 429.908 298.617 429.412C298.232 428.916 298.518 427.986 298.208 427.453C297.898 426.92 296.968 426.684 296.707 426.101C296.447 425.518 296.98 424.7 296.819 424.105C296.658 423.51 295.802 423.038 295.715 422.418C295.628 421.798 296.348 421.178 296.348 420.509C296.348 419.839 295.641 419.207 295.715 418.599C295.79 417.992 296.658 417.508 296.819 416.913C296.98 416.318 296.472 415.474 296.707 414.904C296.943 414.334 297.947 414.098 298.208 413.565C298.468 413.032 298.208 412.089 298.617 411.593C299.026 411.097 299.968 411.122 300.415 410.688C300.861 410.254 300.824 409.274 301.32 408.89C301.816 408.506 302.746 408.791 303.292 408.481C303.837 408.171 304.048 407.241 304.631 406.98C305.214 406.72 306.032 407.253 306.64 407.092C307.247 406.931 307.694 406.075 308.314 405.988C308.934 405.902 309.554 406.621 310.236 406.621C310.918 406.621 311.476 405.914 312.145 405.988C312.815 406.063 313.224 406.931 313.819 407.092C314.414 407.253 315.258 406.745 315.828 406.98C316.398 407.216 316.634 408.22 317.167 408.481C317.7 408.741 318.643 408.481 319.139 408.89C319.635 409.299 319.61 410.242 320.044 410.688C320.478 411.134 321.458 411.097 321.842 411.593C322.226 412.089 321.941 413.019 322.251 413.565C322.561 414.11 323.491 414.321 323.752 414.904C324.012 415.487 323.479 416.305 323.64 416.913C323.801 417.52 324.657 417.967 324.744 418.587C324.83 419.207 324.111 419.827 324.111 420.509C324.111 421.191 324.88 421.798 324.744 422.418ZM344.584 381.064C344.584 380.271 345.464 379.428 345.365 378.659C345.266 377.89 344.125 377.282 343.988 376.538C343.852 375.794 344.422 374.728 344.125 374.058C343.827 373.389 342.624 373.042 342.24 372.36C341.856 371.678 342.24 370.512 341.707 369.88C341.174 369.247 340.008 369.284 339.45 368.726C338.892 368.168 338.929 366.953 338.309 366.47C337.689 365.986 336.511 366.346 335.829 365.949C335.147 365.552 334.862 364.362 334.143 364.064C333.424 363.766 332.37 364.399 331.663 364.2C330.956 364.002 330.324 362.96 329.53 362.812C328.736 362.663 327.918 363.605 327.124 363.605C326.331 363.605 325.488 362.712 324.719 362.812C323.95 362.911 323.342 364.052 322.598 364.2C321.854 364.349 320.788 363.766 320.118 364.064C319.449 364.362 319.102 365.552 318.42 365.949C317.738 366.346 316.572 365.949 315.94 366.47C315.307 366.99 315.357 368.181 314.799 368.726C314.241 369.272 313.026 369.26 312.542 369.88C312.058 370.5 312.406 371.678 312.021 372.36C311.637 373.042 310.434 373.314 310.136 374.046C309.839 374.778 310.471 375.807 310.26 376.526C310.05 377.245 309.02 377.865 308.884 378.646C308.748 379.428 309.678 380.258 309.678 381.052C309.678 381.846 308.785 382.701 308.884 383.47C308.983 384.239 310.124 384.834 310.273 385.59C310.422 386.347 309.826 387.401 310.136 388.07C310.446 388.74 311.624 389.087 312.021 389.757C312.418 390.426 312.021 391.617 312.542 392.237C313.063 392.857 314.253 392.832 314.799 393.378C315.344 393.923 315.32 395.163 315.952 395.647C316.584 396.13 317.75 395.771 318.432 396.168C319.114 396.564 319.399 397.755 320.131 398.052C320.862 398.35 321.892 397.718 322.611 397.916C323.33 398.114 323.95 399.156 324.731 399.292C325.512 399.429 326.343 398.511 327.137 398.511C327.93 398.511 328.774 399.392 329.542 399.292C330.311 399.193 330.919 398.114 331.675 397.916C332.432 397.718 333.486 398.35 334.155 398.052C334.825 397.755 335.172 396.552 335.842 396.168C336.511 395.783 337.702 396.168 338.322 395.634C338.942 395.101 338.917 393.936 339.462 393.378C340.008 392.82 341.248 392.857 341.719 392.237C342.19 391.617 341.856 390.439 342.252 389.757C342.649 389.075 343.84 388.79 344.137 388.07C344.435 387.351 343.79 386.297 344.001 385.59C344.212 384.884 345.241 384.251 345.377 383.47C345.514 382.689 344.534 381.92 344.534 381.064H344.584ZM346.654 451.36C346.654 450.566 347.535 449.723 347.436 448.954C347.336 448.186 346.258 447.578 346.059 446.822C345.861 446.065 346.493 445.024 346.196 444.342C345.898 443.66 344.695 443.337 344.311 442.655C343.926 441.973 344.311 440.795 343.778 440.175C343.244 439.555 342.079 439.592 341.521 439.034C340.963 438.476 341 437.249 340.38 436.778C339.76 436.306 338.582 436.641 337.9 436.244C337.218 435.848 336.933 434.67 336.214 434.36C335.494 434.05 334.44 434.707 333.734 434.496C333.027 434.285 332.394 433.256 331.601 433.12C330.807 432.983 329.989 433.913 329.195 433.913C328.402 433.913 327.558 433.02 326.79 433.12C326.021 433.219 325.413 434.298 324.669 434.496C323.925 434.694 322.859 434.062 322.189 434.36C321.52 434.657 321.172 435.86 320.49 436.244C319.808 436.629 318.643 436.244 318.01 436.778C317.378 437.311 317.415 438.476 316.857 439.034C316.299 439.592 315.084 439.555 314.6 440.175C314.117 440.795 314.464 441.973 314.08 442.655C313.695 443.337 312.492 443.622 312.195 444.354C311.897 445.086 312.53 446.115 312.331 446.834C312.133 447.553 311.091 448.161 310.942 448.954C310.794 449.748 311.736 450.566 311.736 451.36C311.736 452.154 310.843 452.997 310.942 453.766C311.042 454.534 312.12 455.142 312.331 455.898C312.542 456.655 311.897 457.696 312.195 458.378C312.492 459.06 313.683 459.383 314.08 460.065C314.476 460.747 314.08 461.925 314.6 462.545C315.121 463.165 316.312 463.128 316.857 463.686C317.403 464.244 317.39 465.471 318.01 465.942C318.63 466.414 319.808 466.079 320.49 466.476C321.172 466.872 321.445 468.05 322.177 468.36C322.908 468.67 323.938 468.013 324.657 468.224C325.376 468.435 325.996 469.464 326.777 469.6C327.558 469.737 328.389 468.807 329.183 468.807C329.976 468.807 330.832 469.7 331.601 469.6C332.37 469.501 332.965 468.36 333.721 468.224C334.478 468.088 335.532 468.658 336.201 468.36C336.871 468.063 337.218 466.86 337.888 466.476C338.557 466.091 339.748 466.476 340.368 465.942C340.988 465.409 340.963 464.244 341.508 463.686C342.054 463.128 343.294 463.165 343.778 462.545C344.261 461.925 343.902 460.747 344.298 460.065C344.695 459.383 345.886 459.098 346.183 458.366C346.481 457.634 345.848 456.605 346.047 455.886C346.245 455.167 347.287 454.559 347.423 453.766C347.56 452.972 346.654 452.203 346.654 451.36ZM310.484 461.354C310.484 460.821 311.389 460.251 311.314 459.742C311.24 459.234 310.223 458.899 310.074 458.403C309.926 457.907 310.67 457.101 310.471 456.618C310.273 456.134 309.231 456.097 308.946 455.65C308.661 455.204 309.169 454.237 308.859 453.828C308.549 453.418 307.495 453.654 307.123 453.282C306.751 452.91 306.987 451.868 306.578 451.558C306.168 451.248 305.214 451.732 304.767 451.472C304.321 451.211 304.271 450.145 303.788 449.946C303.304 449.748 302.548 450.467 302.014 450.331C301.481 450.194 301.196 449.178 300.675 449.091C300.154 449.004 299.584 449.934 299.063 449.934C298.542 449.934 297.96 449.029 297.451 449.091C296.943 449.153 296.608 450.194 296.112 450.331C295.616 450.467 294.81 449.748 294.339 449.946C293.868 450.145 293.806 451.186 293.359 451.472C292.913 451.757 291.958 451.248 291.549 451.558C291.14 451.868 291.363 452.922 291.003 453.294C290.644 453.666 289.577 453.431 289.267 453.84C288.957 454.249 289.441 455.204 289.18 455.65C288.92 456.097 287.854 456.146 287.655 456.63C287.457 457.114 288.176 457.87 288.052 458.403C287.928 458.936 286.886 459.222 286.812 459.742C286.738 460.263 287.643 460.821 287.643 461.354C287.643 461.888 286.738 462.458 286.812 462.966C286.886 463.475 287.903 463.81 288.052 464.306C288.201 464.802 287.457 465.546 287.655 466.079C287.854 466.612 288.895 466.612 289.193 467.058C289.49 467.505 288.957 468.46 289.267 468.869C289.577 469.278 290.631 469.055 291.003 469.414C291.375 469.774 291.14 470.828 291.549 471.15C291.958 471.473 292.913 470.964 293.359 471.225C293.806 471.485 293.855 472.564 294.339 472.762C294.822 472.961 295.579 472.229 296.112 472.366C296.645 472.502 296.93 473.531 297.451 473.606C297.972 473.68 298.542 472.762 299.063 472.762C299.584 472.762 300.167 473.668 300.675 473.606C301.184 473.544 301.518 472.514 302.014 472.366C302.51 472.217 303.316 472.961 303.788 472.762C304.259 472.564 304.321 471.522 304.767 471.225C305.214 470.927 306.168 471.46 306.578 471.15C306.987 470.84 306.764 469.774 307.123 469.414C307.483 469.055 308.549 469.278 308.859 468.869C309.169 468.46 308.686 467.505 308.946 467.058C309.206 466.612 310.273 466.562 310.471 466.079C310.67 465.595 309.95 464.839 310.087 464.306C310.223 463.772 311.24 463.487 311.327 462.966C311.414 462.446 310.484 461.925 310.484 461.404V461.354ZM348.725 317.514C348.725 316.721 349.618 315.878 349.519 315.109C349.42 314.34 348.341 313.732 348.142 312.976C347.944 312.22 348.576 311.178 348.279 310.496C347.981 309.814 346.778 309.479 346.394 308.797C346.01 308.115 346.394 306.937 345.861 306.317C345.328 305.697 344.162 305.734 343.604 305.176C343.046 304.618 343.083 303.391 342.463 302.92C341.843 302.448 340.665 302.783 339.983 302.386C339.301 301.99 339.016 300.812 338.284 300.502C337.553 300.192 336.524 300.849 335.804 300.638C335.085 300.427 334.478 299.398 333.684 299.262C332.89 299.125 332.072 300.055 331.278 300.055C330.485 300.055 329.642 299.162 328.873 299.262C328.104 299.361 327.496 300.502 326.74 300.638C325.984 300.774 324.942 300.204 324.26 300.502C323.578 300.799 323.256 302.002 322.574 302.386C321.892 302.771 320.714 302.386 320.094 302.92C319.474 303.453 319.511 304.618 318.953 305.176C318.395 305.734 317.167 305.697 316.696 306.317C316.225 306.937 316.56 308.115 316.163 308.797C315.766 309.479 314.588 309.764 314.278 310.496C313.968 311.228 314.625 312.257 314.414 312.976C314.204 313.695 313.174 314.303 313.038 315.096C312.902 315.89 313.832 316.708 313.832 317.502C313.832 318.296 312.939 319.139 313.038 319.908C313.137 320.676 314.216 321.284 314.414 322.04C314.613 322.797 313.98 323.838 314.278 324.52C314.576 325.202 315.778 325.525 316.163 326.207C316.547 326.889 316.163 328.067 316.696 328.687C317.229 329.307 318.395 329.27 318.953 329.828C319.511 330.386 319.474 331.613 320.094 332.084C320.714 332.556 321.892 332.221 322.574 332.618C323.256 333.014 323.541 334.192 324.272 334.502C325.004 334.812 326.033 334.155 326.752 334.366C327.472 334.577 328.079 335.606 328.873 335.742C329.666 335.879 330.485 334.949 331.278 334.949C332.072 334.949 332.915 335.842 333.684 335.742C334.453 335.643 335.06 334.564 335.817 334.366C336.573 334.168 337.615 334.8 338.297 334.502C338.979 334.205 339.301 333.002 339.983 332.618C340.665 332.233 341.843 332.618 342.463 332.084C343.083 331.551 343.046 330.386 343.604 329.828C344.162 329.27 345.39 329.307 345.861 328.687C346.332 328.067 345.997 326.889 346.394 326.207C346.791 325.525 347.969 325.24 348.279 324.508C348.589 323.776 347.932 322.747 348.142 322.028C348.353 321.309 349.382 320.701 349.519 319.908C349.655 319.114 348.725 318.32 348.725 317.527V317.514ZM380.767 349.544C380.767 348.75 381.647 347.907 381.548 347.138C381.449 346.369 380.37 345.762 380.172 345.018C379.973 344.274 380.606 343.207 380.308 342.538C380.01 341.868 378.808 341.521 378.423 340.839C378.039 340.157 378.423 338.991 377.89 338.359C377.357 337.726 376.191 337.764 375.633 337.206C375.075 336.648 375.112 335.432 374.492 334.949C373.872 334.465 372.694 334.825 372.012 334.428C371.33 334.031 371.045 332.841 370.326 332.543C369.607 332.246 368.553 332.878 367.846 332.68C367.139 332.481 366.507 331.44 365.726 331.291C364.944 331.142 364.101 332.084 363.308 332.084C362.514 332.084 361.671 331.192 360.902 331.291C360.133 331.39 359.526 332.531 358.782 332.68C358.038 332.828 356.971 332.246 356.302 332.543C355.632 332.841 355.285 334.031 354.603 334.428C353.921 334.825 352.755 334.428 352.123 334.949C351.49 335.47 351.528 336.66 350.97 337.206C350.412 337.751 349.196 337.739 348.713 338.359C348.229 338.979 348.576 340.157 348.192 340.839C347.808 341.521 346.605 341.794 346.307 342.525C346.01 343.257 346.642 344.286 346.444 345.005C346.245 345.724 345.204 346.344 345.055 347.126C344.906 347.907 345.848 348.738 345.848 349.531C345.848 350.325 344.956 351.18 345.055 352.011C345.154 352.842 346.233 353.375 346.444 354.132C346.654 354.888 346.01 355.942 346.307 356.612C346.605 357.281 347.795 357.628 348.192 358.298C348.589 358.968 348.192 360.158 348.713 360.778C349.234 361.398 350.424 361.373 350.97 361.919C351.515 362.464 351.503 363.704 352.123 364.188C352.743 364.672 353.921 364.312 354.603 364.709C355.285 365.106 355.558 366.296 356.289 366.594C357.021 366.891 358.05 366.259 358.769 366.457C359.488 366.656 360.108 367.697 360.89 367.834C361.671 367.97 362.502 367.052 363.295 367.052C364.089 367.052 364.944 367.933 365.713 367.834C366.482 367.734 367.077 366.656 367.834 366.457C368.59 366.259 369.644 366.891 370.314 366.594C370.983 366.296 371.33 365.093 372 364.709C372.67 364.324 373.86 364.709 374.48 364.176C375.1 363.642 375.075 362.477 375.621 361.919C376.166 361.361 377.406 361.398 377.89 360.778C378.374 360.158 378.014 358.98 378.411 358.298C378.808 357.616 379.998 357.331 380.296 356.612C380.593 355.892 379.961 354.838 380.159 354.132C380.358 353.425 381.399 352.792 381.536 352.011C381.672 351.23 380.767 350.362 380.767 349.556V349.544Z" fill="white"/>
<path d="M293 487.642L294.736 487.357L297.588 486.886L295.678 481.926L298.728 484.208V480.016L303.304 481.542L306.751 476.954L308.276 480.016L310.942 473.903L312.468 480.016L316.671 476.582V482.682L322.4 479.632L322.772 482.682L326.591 477.338L327.744 482.298L331.179 478.863L330.795 483.067L336.524 480.401L333.845 484.976L338.805 484.592L336.524 488.027H348.353L340.33 489.18L354.838 491.462L302.163 492.602L309.417 489.18L284.22 489.552L293 487.642Z" fill="#263238"/>
<path opacity="0.7" d="M293 487.642L294.736 487.357L297.588 486.886L295.678 481.926L298.728 484.208V480.016L303.304 481.542L306.751 476.954L308.276 480.016L310.942 473.903L312.468 480.016L316.671 476.582V482.682L322.4 479.632L322.772 482.682L326.591 477.338L327.744 482.298L331.179 478.863L330.795 483.067L336.524 480.401L333.845 484.976L338.805 484.592L336.524 488.027H348.353L340.33 489.18L354.838 491.462L302.163 492.602L309.417 489.18L284.22 489.552L293 487.642Z" fill="white"/>
</svg>
